<svg width="497" height="181" viewBox="0 0 497 181" fill="none" xmlns="http://www.w3.org/2000/svg">
<g clip-path="url(#clip0_3_29)">
<path d="M166.616 148.506V31.7472H187.287V148.506H166.616Z" fill="#1E1E1E"/>
<path d="M288.921 57.2803H230.106V78.2688H282.358V103.802H230.106V148.506H209.435V31.7472H288.921V57.2803Z" fill="#1E1E1E"/>
<path d="M316.154 50.8351C311.779 50.8351 308.088 49.513 305.08 46.8688C302.127 44.2246 300.651 41.0019 300.651 37.2009C300.651 33.3447 302.127 30.1221 305.08 27.533C308.088 24.9439 311.779 23.6493 316.154 23.6493C320.638 23.6493 324.357 24.9439 327.31 27.533C330.263 30.1221 331.739 33.3172 331.739 37.1182C331.739 41.0846 330.263 44.3623 327.31 46.9514C324.357 49.5405 320.638 50.8351 316.154 50.8351ZM306.557 148.506V62.2382H325.669V148.506H306.557Z" fill="#1E1E1E"/>
<path d="M387.273 49.1824C380.109 49.1824 376.527 52.1572 376.527 58.1067V62.2382H399.495V86.3667H376.527V148.506H357.332V86.3667H339.86V62.2382H357.332V52.0746C357.332 34.0058 366.683 24.9714 385.386 24.9714H399.495V49.1824H387.273Z" fill="#1E1E1E"/>
<path d="M474.469 62.2382H496.616L452.731 180.649H429.599L444.2 148.506H438.294L406.385 62.2382H426.564L449.04 120.411H451.911L474.469 62.2382Z" fill="#1E1E1E"/>
<path d="M73.0719 60.4618L142.579 52.0069L152.237 131.402L133.43 133.69L130.093 106.255C121.649 127.417 105.507 139.48 81.6671 142.446C61.0509 144.953 43.0021 140.263 27.5209 128.373C12.0397 116.484 3.07661 100.489 0.631737 80.3899C-1.821 60.226 3.04237 42.517 15.2218 27.2629C27.4013 12.0087 43.7992 3.12773 64.4154 0.619972C80.8309 -1.37681 95.8098 1.26088 109.352 8.53302C122.951 15.7327 132.43 25.9913 137.788 39.3089L108.996 42.8112C104.441 38.2497 98.561 34.9315 91.3567 32.8566C84.217 30.7738 76.4787 30.2394 68.1417 31.2535C54.7638 32.8808 44.0186 38.0901 35.9062 46.8814C27.7859 55.6081 24.4294 65.7556 25.8366 77.324C27.2359 88.8277 32.9272 97.8747 42.9106 104.465C52.8862 110.99 64.5629 113.439 77.9409 111.812C88.2813 110.554 97.1785 107.406 104.632 102.368C112.079 97.2645 117.098 91.0793 119.69 83.8121L76.5505 89.0596L73.0719 60.4618Z" fill="#B1A0F7"/>
<mask id="mask0_3_29" style="mask-type:alpha" maskUnits="userSpaceOnUse" x="146" y="87" width="497" height="181">
<path fill-rule="evenodd" clip-rule="evenodd" d="M533.565 136.344C526.402 136.344 522.82 139.318 522.82 145.268L522.82 149.399L545.788 149.399L545.788 173.528L522.82 173.528L522.82 235.667L503.625 235.667L503.625 173.528L486.153 173.528L486.153 149.399L503.625 149.399L503.625 139.236C503.625 121.167 512.976 112.132 531.679 112.132L545.788 112.132L545.788 136.344L533.565 136.344ZM451.373 134.03C454.381 136.674 458.072 137.996 462.447 137.996C466.931 137.996 470.65 136.702 473.603 134.112C476.556 131.523 478.032 128.246 478.032 124.279C478.032 120.478 476.556 117.283 473.603 114.694C470.65 112.105 466.931 110.81 462.447 110.81C458.072 110.81 454.381 112.105 451.373 114.694C448.42 117.283 446.944 120.506 446.944 124.362C446.944 128.163 448.42 131.386 451.373 134.03ZM452.85 149.399L452.85 235.667L471.962 235.667L471.962 149.399L452.85 149.399ZM435.214 144.441L376.399 144.441L376.399 165.43L428.651 165.43L428.651 190.963L376.399 190.963L376.399 235.667L355.728 235.667L355.728 118.908L435.214 118.908L435.214 144.441ZM312.909 235.667L312.909 118.908L333.58 118.908L333.58 235.667L312.909 235.667ZM642.909 149.399L620.762 149.399L598.204 207.572L595.333 207.572L572.857 149.399L552.678 149.399L584.587 235.667L590.493 235.667L575.892 267.81L599.024 267.81L642.909 149.399ZM288.872 139.168L219.365 147.623L222.843 176.221L265.983 170.973C263.391 178.24 258.372 184.426 250.925 189.529C243.471 194.567 234.574 197.715 224.234 198.973C210.856 200.6 199.179 198.151 189.204 191.626C179.22 185.036 173.529 175.989 172.13 164.485C170.722 152.917 174.079 142.769 182.199 134.043C190.312 125.251 201.057 120.042 214.435 118.415C222.772 117.401 230.51 117.935 237.65 120.018C244.854 122.093 250.734 125.411 255.289 129.972L284.081 126.47C278.723 113.152 269.244 102.894 255.645 95.6941C242.103 88.422 227.124 85.7843 210.708 87.781C190.092 90.2888 173.694 99.1698 161.515 114.424C149.335 129.678 144.472 147.387 146.925 167.551C149.37 187.65 158.333 203.645 173.814 215.534C189.295 227.424 207.344 232.115 227.96 229.607C251.8 226.641 267.942 214.578 276.386 193.416L279.723 220.851L298.53 218.563L288.872 139.168Z" fill="#FFDA93"/>
</mask>
<g mask="url(#mask0_3_29)">
</g>
</g>
<defs>
<clipPath id="clip0_3_29">
<rect width="497" height="181" fill="white"/>
</clipPath>
</defs>
</svg>
