<svg width="500" height="500" viewBox="0 0 500 500" fill="none" xmlns="http://www.w3.org/2000/svg">
<rect width="500" height="500" fill="white"/>
<path fill-rule="evenodd" clip-rule="evenodd" d="M175.355 164.65C207.417 109.117 287.573 109.117 319.635 164.65L295.227 178.742C274.012 141.998 220.977 141.998 199.763 178.742L175.355 164.65Z" fill="black"/>
<path d="M164.195 141.476C164.195 150.643 156.764 158.074 147.597 158.074C138.431 158.074 131 150.643 131 141.476C131 132.31 138.431 124.879 147.597 124.879C156.764 124.879 164.195 132.31 164.195 141.476Z" fill="black"/>
<path d="M369 141.476C369 150.643 361.569 158.074 352.403 158.074C343.236 158.074 335.805 150.643 335.805 141.476C335.805 132.31 343.236 124.879 352.403 124.879C361.569 124.879 369 132.31 369 141.476Z" fill="black"/>
<path d="M86.7459 356C85.9559 356 85.3609 355.805 84.9609 355.415C84.5609 355.025 84.3609 354.415 84.3609 353.585V349.925H83.2659V348.2H84.3609V346.625L86.3859 346.415V348.2H88.0359V349.925H86.3859V353.48C86.3859 353.96 86.5959 354.2 87.0159 354.2H87.8559V356H86.7459ZM88.7128 345.05H90.7378V349.28C91.1578 348.44 91.9428 348.02 93.0928 348.02C93.6528 348.02 94.1578 348.155 94.6078 348.425C95.0578 348.685 95.4128 349.06 95.6728 349.55C95.9328 350.03 96.0628 350.59 96.0628 351.23V356H94.0378V351.725C94.0378 351.075 93.8878 350.59 93.5878 350.27C93.2878 349.95 92.8778 349.79 92.3578 349.79C91.8978 349.79 91.5128 349.955 91.2028 350.285C90.8928 350.605 90.7378 351.085 90.7378 351.725V356H88.7128V345.05ZM97.1942 348.2H99.2192V356H97.1942V348.2ZM96.9842 346.355C96.9842 346.025 97.0992 345.745 97.3292 345.515C97.5692 345.285 97.8592 345.17 98.1992 345.17C98.5492 345.17 98.8392 345.285 99.0692 345.515C99.2992 345.745 99.4142 346.025 99.4142 346.355C99.4142 346.695 99.2992 346.98 99.0692 347.21C98.8392 347.44 98.5492 347.555 98.1992 347.555C97.8592 347.555 97.5692 347.44 97.3292 347.21C97.0992 346.97 96.9842 346.685 96.9842 346.355ZM103.087 356.195C101.777 356.195 100.697 355.74 99.8469 354.83L101.212 353.585C101.782 354.225 102.392 354.545 103.042 354.545C103.382 354.545 103.647 354.47 103.837 354.32C104.027 354.17 104.122 353.975 104.122 353.735C104.122 353.515 104.027 353.345 103.837 353.225C103.657 353.095 103.277 352.96 102.697 352.82C101.747 352.59 101.107 352.275 100.777 351.875C100.457 351.475 100.297 350.98 100.297 350.39C100.297 349.69 100.557 349.12 101.077 348.68C101.597 348.23 102.307 348.005 103.207 348.005C103.857 348.005 104.402 348.105 104.842 348.305C105.292 348.505 105.712 348.855 106.102 349.355L104.632 350.48C104.282 349.92 103.822 349.64 103.252 349.64C102.962 349.64 102.727 349.7 102.547 349.82C102.367 349.93 102.277 350.1 102.277 350.33C102.277 350.49 102.342 350.63 102.472 350.75C102.612 350.86 102.897 350.97 103.327 351.08C104.397 351.36 105.127 351.705 105.517 352.115C105.917 352.525 106.117 353.045 106.117 353.675C106.117 354.145 105.982 354.575 105.712 354.965C105.452 355.345 105.092 355.645 104.632 355.865C104.172 356.085 103.657 356.195 103.087 356.195ZM112.955 356.195C112.225 356.195 111.55 356.015 110.93 355.655C110.32 355.285 109.835 354.785 109.475 354.155C109.115 353.525 108.935 352.84 108.935 352.1C108.935 351.35 109.115 350.665 109.475 350.045C109.835 349.415 110.335 348.92 110.975 348.56C111.615 348.19 112.33 348.005 113.12 348.005C113.81 348.005 114.43 348.135 114.98 348.395C115.53 348.645 115.97 349 116.3 349.46L114.74 350.735C114.56 350.465 114.325 350.25 114.035 350.09C113.745 349.93 113.43 349.85 113.09 349.85C112.67 349.85 112.3 349.955 111.98 350.165C111.66 350.365 111.41 350.635 111.23 350.975C111.05 351.315 110.96 351.69 110.96 352.1C110.96 352.5 111.05 352.875 111.23 353.225C111.42 353.565 111.68 353.84 112.01 354.05C112.34 354.25 112.715 354.35 113.135 354.35C113.505 354.35 113.825 354.27 114.095 354.11C114.365 353.95 114.61 353.72 114.83 353.42L116.3 354.695C115.52 355.695 114.405 356.195 112.955 356.195ZM120.458 356.195C119.668 356.195 118.958 356.015 118.328 355.655C117.698 355.285 117.203 354.79 116.843 354.17C116.483 353.54 116.303 352.855 116.303 352.115C116.303 351.375 116.483 350.69 116.843 350.06C117.203 349.43 117.698 348.935 118.328 348.575C118.958 348.205 119.668 348.02 120.458 348.02C121.248 348.02 121.958 348.205 122.588 348.575C123.218 348.935 123.713 349.43 124.073 350.06C124.433 350.69 124.613 351.375 124.613 352.115C124.613 352.855 124.433 353.54 124.073 354.17C123.713 354.79 123.218 355.285 122.588 355.655C121.958 356.015 121.248 356.195 120.458 356.195ZM118.328 352.115C118.328 352.525 118.413 352.9 118.583 353.24C118.763 353.58 119.013 353.85 119.333 354.05C119.663 354.25 120.038 354.35 120.458 354.35C120.878 354.35 121.248 354.25 121.568 354.05C121.898 353.85 122.148 353.58 122.318 353.24C122.498 352.9 122.588 352.525 122.588 352.115C122.588 351.705 122.498 351.33 122.318 350.99C122.138 350.65 121.888 350.38 121.568 350.18C121.248 349.97 120.878 349.865 120.458 349.865C120.038 349.865 119.668 349.97 119.348 350.18C119.028 350.38 118.778 350.65 118.598 350.99C118.418 351.33 118.328 351.705 118.328 352.115ZM128.405 356.18C127.845 356.18 127.34 356.05 126.89 355.79C126.44 355.52 126.085 355.145 125.825 354.665C125.565 354.175 125.435 353.61 125.435 352.97V348.2H127.46V352.475C127.46 353.765 127.98 354.41 129.02 354.41C129.48 354.41 129.865 354.25 130.175 353.93C130.485 353.6 130.64 353.115 130.64 352.475V348.2H132.665V356H130.7V354.83C130.51 355.29 130.23 355.63 129.86 355.85C129.49 356.07 129.005 356.18 128.405 356.18ZM133.859 345.05H135.884V356H133.859V345.05ZM140.637 356.195C139.937 356.195 139.292 356.015 138.702 355.655C138.112 355.285 137.642 354.79 137.292 354.17C136.952 353.55 136.782 352.87 136.782 352.13C136.782 351.39 136.952 350.71 137.292 350.09C137.642 349.46 138.112 348.96 138.702 348.59C139.292 348.22 139.937 348.035 140.637 348.035C141.277 348.035 141.792 348.155 142.182 348.395C142.572 348.625 142.877 348.96 143.097 349.4V345.05H145.122V356H143.157V354.725C142.927 355.195 142.612 355.56 142.212 355.82C141.822 356.07 141.297 356.195 140.637 356.195ZM138.807 352.115C138.807 352.515 138.897 352.89 139.077 353.24C139.267 353.58 139.522 353.855 139.842 354.065C140.172 354.265 140.547 354.365 140.967 354.365C141.397 354.365 141.777 354.265 142.107 354.065C142.447 353.865 142.707 353.595 142.887 353.255C143.067 352.915 143.157 352.54 143.157 352.13C143.157 351.72 143.067 351.345 142.887 351.005C142.707 350.655 142.447 350.38 142.107 350.18C141.777 349.97 141.397 349.865 140.967 349.865C140.547 349.865 140.172 349.97 139.842 350.18C139.512 350.38 139.257 350.65 139.077 350.99C138.897 351.33 138.807 351.705 138.807 352.115ZM153.271 356.195C152.611 356.195 152.081 356.07 151.681 355.82C151.291 355.56 150.981 355.195 150.751 354.725V356H148.786V345.05H150.811V349.4C151.031 348.96 151.336 348.625 151.726 348.395C152.116 348.155 152.631 348.035 153.271 348.035C153.971 348.035 154.616 348.22 155.206 348.59C155.796 348.96 156.261 349.46 156.601 350.09C156.951 350.71 157.126 351.39 157.126 352.13C157.126 352.87 156.951 353.55 156.601 354.17C156.261 354.79 155.796 355.285 155.206 355.655C154.616 356.015 153.971 356.195 153.271 356.195ZM150.751 352.13C150.751 352.54 150.841 352.915 151.021 353.255C151.201 353.595 151.456 353.865 151.786 354.065C152.126 354.265 152.511 354.365 152.941 354.365C153.361 354.365 153.731 354.265 154.051 354.065C154.381 353.855 154.636 353.58 154.816 353.24C155.006 352.89 155.101 352.515 155.101 352.115C155.101 351.705 155.011 351.33 154.831 350.99C154.651 350.65 154.396 350.38 154.066 350.18C153.736 349.97 153.361 349.865 152.941 349.865C152.511 349.865 152.126 349.97 151.786 350.18C151.456 350.38 151.201 350.655 151.021 351.005C150.841 351.345 150.751 351.72 150.751 352.13ZM161.691 356.195C160.901 356.195 160.201 356.015 159.591 355.655C158.981 355.285 158.506 354.79 158.166 354.17C157.826 353.55 157.656 352.865 157.656 352.115C157.656 351.375 157.831 350.69 158.181 350.06C158.531 349.43 159.011 348.93 159.621 348.56C160.241 348.19 160.931 348.005 161.691 348.005C162.451 348.005 163.131 348.19 163.731 348.56C164.341 348.93 164.811 349.43 165.141 350.06C165.481 350.68 165.651 351.365 165.651 352.115C165.651 352.365 165.631 352.605 165.591 352.835H159.756C159.876 353.305 160.101 353.685 160.431 353.975C160.771 354.255 161.191 354.395 161.691 354.395C162.111 354.395 162.486 354.3 162.816 354.11C163.146 353.91 163.406 353.655 163.596 353.345L165.171 354.53C164.851 355.03 164.381 355.435 163.761 355.745C163.141 356.045 162.451 356.195 161.691 356.195ZM163.611 351.32C163.491 350.87 163.256 350.495 162.906 350.195C162.556 349.895 162.141 349.745 161.661 349.745C161.191 349.745 160.781 349.89 160.431 350.18C160.091 350.47 159.866 350.85 159.756 351.32H163.611ZM172.292 356.195C171.592 356.195 170.947 356.015 170.357 355.655C169.767 355.285 169.297 354.79 168.947 354.17C168.607 353.55 168.437 352.87 168.437 352.13C168.437 351.39 168.607 350.71 168.947 350.09C169.297 349.46 169.767 348.96 170.357 348.59C170.947 348.22 171.592 348.035 172.292 348.035C172.932 348.035 173.447 348.155 173.837 348.395C174.237 348.635 174.547 348.98 174.767 349.43V348.2H176.777V356H174.812V354.725C174.582 355.195 174.267 355.56 173.867 355.82C173.477 356.07 172.952 356.195 172.292 356.195ZM170.462 352.115C170.462 352.515 170.552 352.89 170.732 353.24C170.922 353.58 171.177 353.855 171.497 354.065C171.827 354.265 172.202 354.365 172.622 354.365C173.052 354.365 173.432 354.265 173.762 354.065C174.102 353.865 174.362 353.595 174.542 353.255C174.722 352.915 174.812 352.54 174.812 352.13C174.812 351.72 174.722 351.345 174.542 351.005C174.362 350.655 174.102 350.38 173.762 350.18C173.432 349.97 173.052 349.865 172.622 349.865C172.202 349.865 171.827 349.97 171.497 350.18C171.167 350.38 170.912 350.65 170.732 350.99C170.552 351.33 170.462 351.705 170.462 352.115ZM177.98 348.2H179.975V349.34C180.385 348.46 181.18 348.02 182.36 348.02C182.92 348.02 183.425 348.155 183.875 348.425C184.325 348.685 184.68 349.06 184.94 349.55C185.2 350.03 185.33 350.59 185.33 351.23V356H183.305V351.725C183.305 351.075 183.155 350.59 182.855 350.27C182.555 349.95 182.145 349.79 181.625 349.79C181.165 349.79 180.78 349.955 180.47 350.285C180.16 350.605 180.005 351.085 180.005 351.725V356H177.98V348.2ZM188.923 348.2H190.948V356H188.923V348.2ZM188.713 346.355C188.713 346.025 188.828 345.745 189.058 345.515C189.298 345.285 189.588 345.17 189.928 345.17C190.278 345.17 190.568 345.285 190.798 345.515C191.028 345.745 191.143 346.025 191.143 346.355C191.143 346.695 191.028 346.98 190.798 347.21C190.568 347.44 190.278 347.555 189.928 347.555C189.588 347.555 189.298 347.44 189.058 347.21C188.828 346.97 188.713 346.685 188.713 346.355ZM194.815 356.195C193.505 356.195 192.425 355.74 191.575 354.83L192.94 353.585C193.51 354.225 194.12 354.545 194.77 354.545C195.11 354.545 195.375 354.47 195.565 354.32C195.755 354.17 195.85 353.975 195.85 353.735C195.85 353.515 195.755 353.345 195.565 353.225C195.385 353.095 195.005 352.96 194.425 352.82C193.475 352.59 192.835 352.275 192.505 351.875C192.185 351.475 192.025 350.98 192.025 350.39C192.025 349.69 192.285 349.12 192.805 348.68C193.325 348.23 194.035 348.005 194.935 348.005C195.585 348.005 196.13 348.105 196.57 348.305C197.02 348.505 197.44 348.855 197.83 349.355L196.36 350.48C196.01 349.92 195.55 349.64 194.98 349.64C194.69 349.64 194.455 349.7 194.275 349.82C194.095 349.93 194.005 350.1 194.005 350.33C194.005 350.49 194.07 350.63 194.2 350.75C194.34 350.86 194.625 350.97 195.055 351.08C196.125 351.36 196.855 351.705 197.245 352.115C197.645 352.525 197.845 353.045 197.845 353.675C197.845 354.145 197.71 354.575 197.44 354.965C197.18 355.345 196.82 355.645 196.36 355.865C195.9 356.085 195.385 356.195 194.815 356.195ZM201.305 356.195C199.995 356.195 198.915 355.74 198.065 354.83L199.43 353.585C200 354.225 200.61 354.545 201.26 354.545C201.6 354.545 201.865 354.47 202.055 354.32C202.245 354.17 202.34 353.975 202.34 353.735C202.34 353.515 202.245 353.345 202.055 353.225C201.875 353.095 201.495 352.96 200.915 352.82C199.965 352.59 199.325 352.275 198.995 351.875C198.675 351.475 198.515 350.98 198.515 350.39C198.515 349.69 198.775 349.12 199.295 348.68C199.815 348.23 200.525 348.005 201.425 348.005C202.075 348.005 202.62 348.105 203.06 348.305C203.51 348.505 203.93 348.855 204.32 349.355L202.85 350.48C202.5 349.92 202.04 349.64 201.47 349.64C201.18 349.64 200.945 349.7 200.765 349.82C200.585 349.93 200.495 350.1 200.495 350.33C200.495 350.49 200.56 350.63 200.69 350.75C200.83 350.86 201.115 350.97 201.545 351.08C202.615 351.36 203.345 351.705 203.735 352.115C204.135 352.525 204.335 353.045 204.335 353.675C204.335 354.145 204.2 354.575 203.93 354.965C203.67 355.345 203.31 355.645 202.85 355.865C202.39 356.085 201.875 356.195 201.305 356.195ZM208.019 356.18C207.459 356.18 206.954 356.05 206.504 355.79C206.054 355.52 205.699 355.145 205.439 354.665C205.179 354.175 205.049 353.61 205.049 352.97V348.2H207.074V352.475C207.074 353.765 207.594 354.41 208.634 354.41C209.094 354.41 209.479 354.25 209.789 353.93C210.099 353.6 210.254 353.115 210.254 352.475V348.2H212.279V356H210.314V354.83C210.124 355.29 209.844 355.63 209.474 355.85C209.104 356.07 208.619 356.18 208.019 356.18ZM217.209 356.195C216.419 356.195 215.719 356.015 215.109 355.655C214.499 355.285 214.024 354.79 213.684 354.17C213.344 353.55 213.174 352.865 213.174 352.115C213.174 351.375 213.349 350.69 213.699 350.06C214.049 349.43 214.529 348.93 215.139 348.56C215.759 348.19 216.449 348.005 217.209 348.005C217.969 348.005 218.649 348.19 219.249 348.56C219.859 348.93 220.329 349.43 220.659 350.06C220.999 350.68 221.169 351.365 221.169 352.115C221.169 352.365 221.149 352.605 221.109 352.835H215.274C215.394 353.305 215.619 353.685 215.949 353.975C216.289 354.255 216.709 354.395 217.209 354.395C217.629 354.395 218.004 354.3 218.334 354.11C218.664 353.91 218.924 353.655 219.114 353.345L220.689 354.53C220.369 355.03 219.899 355.435 219.279 355.745C218.659 356.045 217.969 356.195 217.209 356.195ZM219.129 351.32C219.009 350.87 218.774 350.495 218.424 350.195C218.074 349.895 217.659 349.745 217.179 349.745C216.709 349.745 216.299 349.89 215.949 350.18C215.609 350.47 215.384 350.85 215.274 351.32H219.129ZM223.592 348.2H225.962L226.967 352.625C227.077 353.075 227.157 353.47 227.207 353.81C227.277 353.38 227.362 352.98 227.462 352.61L228.602 348.2H230.927L232.142 352.61C232.242 352.98 232.327 353.38 232.397 353.81C232.447 353.47 232.527 353.075 232.637 352.625L233.717 348.2H235.922L233.492 356H231.302L230.027 351.56C229.907 351.2 229.817 350.81 229.757 350.39C229.687 350.85 229.607 351.24 229.517 351.56L228.347 356H226.022L223.592 348.2ZM236.325 348.2H238.35V356H236.325V348.2ZM236.115 346.355C236.115 346.025 236.23 345.745 236.46 345.515C236.7 345.285 236.99 345.17 237.33 345.17C237.68 345.17 237.97 345.285 238.2 345.515C238.43 345.745 238.545 346.025 238.545 346.355C238.545 346.695 238.43 346.98 238.2 347.21C237.97 347.44 237.68 347.555 237.33 347.555C236.99 347.555 236.7 347.44 236.46 347.21C236.23 346.97 236.115 346.685 236.115 346.355ZM242.503 356C241.713 356 241.118 355.805 240.718 355.415C240.318 355.025 240.118 354.415 240.118 353.585V349.925H239.023V348.2H240.118V346.625L242.143 346.415V348.2H243.793V349.925H242.143V353.48C242.143 353.96 242.353 354.2 242.773 354.2H243.613V356H242.503ZM244.47 345.05H246.495V349.28C246.915 348.44 247.7 348.02 248.85 348.02C249.41 348.02 249.915 348.155 250.365 348.425C250.815 348.685 251.17 349.06 251.43 349.55C251.69 350.03 251.82 350.59 251.82 351.23V356H249.795V351.725C249.795 351.075 249.645 350.59 249.345 350.27C249.045 349.95 248.635 349.79 248.115 349.79C247.655 349.79 247.27 349.955 246.96 350.285C246.65 350.605 246.495 351.085 246.495 351.725V356H244.47V345.05ZM259.135 356.195C258.345 356.195 257.635 356.015 257.005 355.655C256.375 355.285 255.88 354.79 255.52 354.17C255.16 353.54 254.98 352.855 254.98 352.115C254.98 351.375 255.16 350.69 255.52 350.06C255.88 349.43 256.375 348.935 257.005 348.575C257.635 348.205 258.345 348.02 259.135 348.02C259.925 348.02 260.635 348.205 261.265 348.575C261.895 348.935 262.39 349.43 262.75 350.06C263.11 350.69 263.29 351.375 263.29 352.115C263.29 352.855 263.11 353.54 262.75 354.17C262.39 354.79 261.895 355.285 261.265 355.655C260.635 356.015 259.925 356.195 259.135 356.195ZM257.005 352.115C257.005 352.525 257.09 352.9 257.26 353.24C257.44 353.58 257.69 353.85 258.01 354.05C258.34 354.25 258.715 354.35 259.135 354.35C259.555 354.35 259.925 354.25 260.245 354.05C260.575 353.85 260.825 353.58 260.995 353.24C261.175 352.9 261.265 352.525 261.265 352.115C261.265 351.705 261.175 351.33 260.995 350.99C260.815 350.65 260.565 350.38 260.245 350.18C259.925 349.97 259.555 349.865 259.135 349.865C258.715 349.865 258.345 349.97 258.025 350.18C257.705 350.38 257.455 350.65 257.275 350.99C257.095 351.33 257.005 351.705 257.005 352.115ZM267.081 356.18C266.521 356.18 266.016 356.05 265.566 355.79C265.116 355.52 264.761 355.145 264.501 354.665C264.241 354.175 264.111 353.61 264.111 352.97V348.2H266.136V352.475C266.136 353.765 266.656 354.41 267.696 354.41C268.156 354.41 268.541 354.25 268.851 353.93C269.161 353.6 269.316 353.115 269.316 352.475V348.2H271.341V356H269.376V354.83C269.186 355.29 268.906 355.63 268.536 355.85C268.166 356.07 267.681 356.18 267.081 356.18ZM272.536 348.2H274.501V349.685C274.641 349.115 274.911 348.685 275.311 348.395C275.721 348.105 276.256 347.98 276.916 348.02V349.925H276.631C276.031 349.925 275.536 350.115 275.146 350.495C274.756 350.865 274.561 351.37 274.561 352.01V356H272.536V348.2ZM282.721 356.195C281.411 356.195 280.331 355.74 279.481 354.83L280.846 353.585C281.416 354.225 282.026 354.545 282.676 354.545C283.016 354.545 283.281 354.47 283.471 354.32C283.661 354.17 283.756 353.975 283.756 353.735C283.756 353.515 283.661 353.345 283.471 353.225C283.291 353.095 282.911 352.96 282.331 352.82C281.381 352.59 280.741 352.275 280.411 351.875C280.091 351.475 279.931 350.98 279.931 350.39C279.931 349.69 280.191 349.12 280.711 348.68C281.231 348.23 281.941 348.005 282.841 348.005C283.491 348.005 284.036 348.105 284.476 348.305C284.926 348.505 285.346 348.855 285.736 349.355L284.266 350.48C283.916 349.92 283.456 349.64 282.886 349.64C282.596 349.64 282.361 349.7 282.181 349.82C282.001 349.93 281.911 350.1 281.911 350.33C281.911 350.49 281.976 350.63 282.106 350.75C282.246 350.86 282.531 350.97 282.961 351.08C284.031 351.36 284.761 351.705 285.151 352.115C285.551 352.525 285.751 353.045 285.751 353.675C285.751 354.145 285.616 354.575 285.346 354.965C285.086 355.345 284.726 355.645 284.266 355.865C283.806 356.085 283.291 356.195 282.721 356.195ZM287.159 359.135C286.599 359.135 286.149 359.085 285.809 358.985L286.109 357.05C286.389 357.12 286.694 357.155 287.024 357.155C287.394 357.155 287.704 357.045 287.954 356.825C288.214 356.615 288.404 356.33 288.524 355.97L288.629 355.64L285.539 348.2H287.984L289.499 352.655C289.639 353.035 289.749 353.45 289.829 353.9C289.909 353.45 290.019 353.035 290.159 352.655L291.674 348.2H294.074L290.624 356.495C290.264 357.345 289.809 357.995 289.259 358.445C288.719 358.905 288.019 359.135 287.159 359.135ZM296.593 356.195C295.283 356.195 294.203 355.74 293.353 354.83L294.718 353.585C295.288 354.225 295.898 354.545 296.548 354.545C296.888 354.545 297.153 354.47 297.343 354.32C297.533 354.17 297.628 353.975 297.628 353.735C297.628 353.515 297.533 353.345 297.343 353.225C297.163 353.095 296.783 352.96 296.203 352.82C295.253 352.59 294.613 352.275 294.283 351.875C293.963 351.475 293.803 350.98 293.803 350.39C293.803 349.69 294.063 349.12 294.583 348.68C295.103 348.23 295.813 348.005 296.713 348.005C297.363 348.005 297.908 348.105 298.348 348.305C298.798 348.505 299.218 348.855 299.608 349.355L298.138 350.48C297.788 349.92 297.328 349.64 296.758 349.64C296.468 349.64 296.233 349.7 296.053 349.82C295.873 349.93 295.783 350.1 295.783 350.33C295.783 350.49 295.848 350.63 295.978 350.75C296.118 350.86 296.403 350.97 296.833 351.08C297.903 351.36 298.633 351.705 299.023 352.115C299.423 352.525 299.623 353.045 299.623 353.675C299.623 354.145 299.488 354.575 299.218 354.965C298.958 355.345 298.598 355.645 298.138 355.865C297.678 356.085 297.163 356.195 296.593 356.195ZM303.235 356C302.445 356 301.85 355.805 301.45 355.415C301.05 355.025 300.85 354.415 300.85 353.585V349.925H299.755V348.2H300.85V346.625L302.875 346.415V348.2H304.525V349.925H302.875V353.48C302.875 353.96 303.085 354.2 303.505 354.2H304.345V356H303.235ZM308.732 356.195C307.942 356.195 307.242 356.015 306.632 355.655C306.022 355.285 305.547 354.79 305.207 354.17C304.867 353.55 304.697 352.865 304.697 352.115C304.697 351.375 304.872 350.69 305.222 350.06C305.572 349.43 306.052 348.93 306.662 348.56C307.282 348.19 307.972 348.005 308.732 348.005C309.492 348.005 310.172 348.19 310.772 348.56C311.382 348.93 311.852 349.43 312.182 350.06C312.522 350.68 312.692 351.365 312.692 352.115C312.692 352.365 312.672 352.605 312.632 352.835H306.797C306.917 353.305 307.142 353.685 307.472 353.975C307.812 354.255 308.232 354.395 308.732 354.395C309.152 354.395 309.527 354.3 309.857 354.11C310.187 353.91 310.447 353.655 310.637 353.345L312.212 354.53C311.892 355.03 311.422 355.435 310.802 355.745C310.182 356.045 309.492 356.195 308.732 356.195ZM310.652 351.32C310.532 350.87 310.297 350.495 309.947 350.195C309.597 349.895 309.182 349.745 308.702 349.745C308.232 349.745 307.822 349.89 307.472 350.18C307.132 350.47 306.907 350.85 306.797 351.32H310.652ZM313.581 348.2H315.576V349.34C315.986 348.46 316.781 348.02 317.961 348.02C318.511 348.02 319.006 348.15 319.446 348.41C319.896 348.66 320.246 349.02 320.496 349.49C320.766 349 321.106 348.635 321.516 348.395C321.936 348.145 322.476 348.02 323.136 348.02C323.696 348.02 324.201 348.155 324.651 348.425C325.101 348.685 325.456 349.06 325.716 349.55C325.976 350.03 326.106 350.59 326.106 351.23V356H324.081V351.725C324.081 351.075 323.941 350.59 323.661 350.27C323.381 349.95 323.001 349.79 322.521 349.79C322.011 349.79 321.616 349.935 321.336 350.225C321.066 350.515 320.931 351.015 320.931 351.725V356H318.906V351.725C318.906 351.075 318.756 350.59 318.456 350.27C318.156 349.95 317.746 349.79 317.226 349.79C316.766 349.79 316.381 349.955 316.071 350.285C315.761 350.605 315.606 351.085 315.606 351.725V356H313.581V348.2ZM327.128 357.08L327.548 356.93C327.868 356.82 328.103 356.705 328.253 356.585C328.413 356.465 328.528 356.305 328.598 356.105C328.478 356.135 328.363 356.15 328.253 356.15C327.953 356.15 327.683 356.03 327.443 355.79C327.203 355.55 327.083 355.27 327.083 354.95C327.083 354.63 327.203 354.355 327.443 354.125C327.693 353.885 327.983 353.765 328.313 353.765C328.763 353.765 329.123 353.92 329.393 354.23C329.673 354.54 329.813 354.965 329.813 355.505C329.813 356.075 329.643 356.57 329.303 356.99C328.973 357.42 328.523 357.735 327.953 357.935L327.533 358.085L327.128 357.08ZM336.904 356.195C336.114 356.195 335.404 356.015 334.774 355.655C334.144 355.285 333.649 354.79 333.289 354.17C332.929 353.54 332.749 352.855 332.749 352.115C332.749 351.375 332.929 350.69 333.289 350.06C333.649 349.43 334.144 348.935 334.774 348.575C335.404 348.205 336.114 348.02 336.904 348.02C337.694 348.02 338.404 348.205 339.034 348.575C339.664 348.935 340.159 349.43 340.519 350.06C340.879 350.69 341.059 351.375 341.059 352.115C341.059 352.855 340.879 353.54 340.519 354.17C340.159 354.79 339.664 355.285 339.034 355.655C338.404 356.015 337.694 356.195 336.904 356.195ZM334.774 352.115C334.774 352.525 334.859 352.9 335.029 353.24C335.209 353.58 335.459 353.85 335.779 354.05C336.109 354.25 336.484 354.35 336.904 354.35C337.324 354.35 337.694 354.25 338.014 354.05C338.344 353.85 338.594 353.58 338.764 353.24C338.944 352.9 339.034 352.525 339.034 352.115C339.034 351.705 338.944 351.33 338.764 350.99C338.584 350.65 338.334 350.38 338.014 350.18C337.694 349.97 337.324 349.865 336.904 349.865C336.484 349.865 336.114 349.97 335.794 350.18C335.474 350.38 335.224 350.65 335.044 350.99C334.864 351.33 334.774 351.705 334.774 352.115ZM341.955 348.2H343.92V349.685C344.06 349.115 344.33 348.685 344.73 348.395C345.14 348.105 345.675 347.98 346.335 348.02V349.925H346.05C345.45 349.925 344.955 350.115 344.565 350.495C344.175 350.865 343.98 351.37 343.98 352.01V356H341.955V348.2ZM352.425 356C351.635 356 351.04 355.805 350.64 355.415C350.24 355.025 350.04 354.415 350.04 353.585V349.925H348.945V348.2H350.04V346.625L352.065 346.415V348.2H353.715V349.925H352.065V353.48C352.065 353.96 352.275 354.2 352.695 354.2H353.535V356H352.425ZM354.392 345.05H356.417V349.28C356.837 348.44 357.622 348.02 358.772 348.02C359.332 348.02 359.837 348.155 360.287 348.425C360.737 348.685 361.092 349.06 361.352 349.55C361.612 350.03 361.742 350.59 361.742 351.23V356H359.717V351.725C359.717 351.075 359.567 350.59 359.267 350.27C358.967 349.95 358.557 349.79 358.037 349.79C357.577 349.79 357.192 349.955 356.882 350.285C356.572 350.605 356.417 351.085 356.417 351.725V356H354.392V345.05ZM366.608 356.195C365.818 356.195 365.118 356.015 364.508 355.655C363.898 355.285 363.423 354.79 363.083 354.17C362.743 353.55 362.573 352.865 362.573 352.115C362.573 351.375 362.748 350.69 363.098 350.06C363.448 349.43 363.928 348.93 364.538 348.56C365.158 348.19 365.848 348.005 366.608 348.005C367.368 348.005 368.048 348.19 368.648 348.56C369.258 348.93 369.728 349.43 370.058 350.06C370.398 350.68 370.568 351.365 370.568 352.115C370.568 352.365 370.548 352.605 370.508 352.835H364.673C364.793 353.305 365.018 353.685 365.348 353.975C365.688 354.255 366.108 354.395 366.608 354.395C367.028 354.395 367.403 354.3 367.733 354.11C368.063 353.91 368.323 353.655 368.513 353.345L370.088 354.53C369.768 355.03 369.298 355.435 368.678 355.745C368.058 356.045 367.368 356.195 366.608 356.195ZM368.528 351.32C368.408 350.87 368.173 350.495 367.823 350.195C367.473 349.895 367.058 349.745 366.578 349.745C366.108 349.745 365.698 349.89 365.348 350.18C365.008 350.47 364.783 350.85 364.673 351.32H368.528ZM373.786 348.2H375.811V356H373.786V348.2ZM373.576 346.355C373.576 346.025 373.691 345.745 373.921 345.515C374.161 345.285 374.451 345.17 374.791 345.17C375.141 345.17 375.431 345.285 375.661 345.515C375.891 345.745 376.006 346.025 376.006 346.355C376.006 346.695 375.891 346.98 375.661 347.21C375.431 347.44 375.141 347.555 374.791 347.555C374.451 347.555 374.161 347.44 373.921 347.21C373.691 346.97 373.576 346.685 373.576 346.355ZM377.009 348.2H379.004V349.34C379.414 348.46 380.209 348.02 381.389 348.02C381.939 348.02 382.434 348.15 382.874 348.41C383.324 348.66 383.674 349.02 383.924 349.49C384.194 349 384.534 348.635 384.944 348.395C385.364 348.145 385.904 348.02 386.564 348.02C387.124 348.02 387.629 348.155 388.079 348.425C388.529 348.685 388.884 349.06 389.144 349.55C389.404 350.03 389.534 350.59 389.534 351.23V356H387.509V351.725C387.509 351.075 387.369 350.59 387.089 350.27C386.809 349.95 386.429 349.79 385.949 349.79C385.439 349.79 385.044 349.935 384.764 350.225C384.494 350.515 384.359 351.015 384.359 351.725V356H382.334V351.725C382.334 351.075 382.184 350.59 381.884 350.27C381.584 349.95 381.174 349.79 380.654 349.79C380.194 349.79 379.809 349.955 379.499 350.285C379.189 350.605 379.034 351.085 379.034 351.725V356H377.009V348.2ZM394.216 356.195C393.516 356.195 392.871 356.015 392.281 355.655C391.691 355.285 391.221 354.79 390.871 354.17C390.531 353.55 390.361 352.87 390.361 352.13C390.361 351.39 390.531 350.71 390.871 350.09C391.221 349.46 391.691 348.96 392.281 348.59C392.871 348.22 393.516 348.035 394.216 348.035C394.856 348.035 395.371 348.155 395.761 348.395C396.161 348.635 396.471 348.98 396.691 349.43V348.2H398.701V356H396.736V354.725C396.506 355.195 396.191 355.56 395.791 355.82C395.401 356.07 394.876 356.195 394.216 356.195ZM392.386 352.115C392.386 352.515 392.476 352.89 392.656 353.24C392.846 353.58 393.101 353.855 393.421 354.065C393.751 354.265 394.126 354.365 394.546 354.365C394.976 354.365 395.356 354.265 395.686 354.065C396.026 353.865 396.286 353.595 396.466 353.255C396.646 352.915 396.736 352.54 396.736 352.13C396.736 351.72 396.646 351.345 396.466 351.005C396.286 350.655 396.026 350.38 395.686 350.18C395.356 349.97 394.976 349.865 394.546 349.865C394.126 349.865 393.751 349.97 393.421 350.18C393.091 350.38 392.836 350.65 392.656 350.99C392.476 351.33 392.386 351.705 392.386 352.115ZM403.699 359.195C402.879 359.195 402.164 359.08 401.554 358.85C400.944 358.63 400.414 358.255 399.964 357.725L401.224 356.24C401.574 356.64 401.944 356.92 402.334 357.08C402.734 357.24 403.194 357.32 403.714 357.32C404.074 357.32 404.409 357.225 404.719 357.035C405.029 356.855 405.274 356.6 405.454 356.27C405.644 355.95 405.739 355.59 405.739 355.19V354.845C405.509 355.235 405.209 355.535 404.839 355.745C404.469 355.945 403.984 356.045 403.384 356.045C402.684 356.045 402.044 355.87 401.464 355.52C400.884 355.16 400.429 354.675 400.099 354.065C399.769 353.445 399.604 352.765 399.604 352.025C399.604 351.285 399.769 350.61 400.099 350C400.429 349.38 400.884 348.895 401.464 348.545C402.044 348.185 402.684 348.005 403.384 348.005C404.004 348.005 404.499 348.115 404.869 348.335C405.249 348.545 405.549 348.855 405.769 349.265V348.2H407.764V355.31C407.764 356.1 407.589 356.785 407.239 357.365C406.899 357.955 406.419 358.405 405.799 358.715C405.189 359.035 404.489 359.195 403.699 359.195ZM401.629 352.025C401.629 352.645 401.814 353.165 402.184 353.585C402.564 353.995 403.074 354.2 403.714 354.2C404.364 354.2 404.879 353.995 405.259 353.585C405.639 353.175 405.829 352.655 405.829 352.025C405.829 351.395 405.639 350.875 405.259 350.465C404.879 350.055 404.364 349.85 403.714 349.85C403.074 349.85 402.564 350.055 402.184 350.465C401.814 350.875 401.629 351.395 401.629 352.025ZM412.692 356.195C411.902 356.195 411.202 356.015 410.592 355.655C409.982 355.285 409.507 354.79 409.167 354.17C408.827 353.55 408.657 352.865 408.657 352.115C408.657 351.375 408.832 350.69 409.182 350.06C409.532 349.43 410.012 348.93 410.622 348.56C411.242 348.19 411.932 348.005 412.692 348.005C413.452 348.005 414.132 348.19 414.732 348.56C415.342 348.93 415.812 349.43 416.142 350.06C416.482 350.68 416.652 351.365 416.652 352.115C416.652 352.365 416.632 352.605 416.592 352.835H410.757C410.877 353.305 411.102 353.685 411.432 353.975C411.772 354.255 412.192 354.395 412.692 354.395C413.112 354.395 413.487 354.3 413.817 354.11C414.147 353.91 414.407 353.655 414.597 353.345L416.172 354.53C415.852 355.03 415.382 355.435 414.762 355.745C414.142 356.045 413.452 356.195 412.692 356.195ZM414.612 351.32C414.492 350.87 414.257 350.495 413.907 350.195C413.557 349.895 413.142 349.745 412.662 349.745C412.192 349.745 411.782 349.89 411.432 350.18C411.092 350.47 410.867 350.85 410.757 351.32H414.612ZM91.8988 366.2H93.9238V374H91.8988V366.2ZM91.6888 364.355C91.6888 364.025 91.8038 363.745 92.0338 363.515C92.2738 363.285 92.5638 363.17 92.9038 363.17C93.2538 363.17 93.5438 363.285 93.7738 363.515C94.0038 363.745 94.1188 364.025 94.1188 364.355C94.1188 364.695 94.0038 364.98 93.7738 365.21C93.5438 365.44 93.2538 365.555 92.9038 365.555C92.5638 365.555 92.2738 365.44 92.0338 365.21C91.8038 364.97 91.6888 364.685 91.6888 364.355ZM98.0765 374C97.2865 374 96.6915 373.805 96.2915 373.415C95.8915 373.025 95.6915 372.415 95.6915 371.585V367.925H94.5965V366.2H95.6915V364.625L97.7165 364.415V366.2H99.3665V367.925H97.7165V371.48C97.7165 371.96 97.9265 372.2 98.3465 372.2H99.1865V374H98.0765ZM102.64 374.195C101.33 374.195 100.25 373.74 99.4001 372.83L100.765 371.585C101.335 372.225 101.945 372.545 102.595 372.545C102.935 372.545 103.2 372.47 103.39 372.32C103.58 372.17 103.675 371.975 103.675 371.735C103.675 371.515 103.58 371.345 103.39 371.225C103.21 371.095 102.83 370.96 102.25 370.82C101.3 370.59 100.66 370.275 100.33 369.875C100.01 369.475 99.8501 368.98 99.8501 368.39C99.8501 367.69 100.11 367.12 100.63 366.68C101.15 366.23 101.86 366.005 102.76 366.005C103.41 366.005 103.955 366.105 104.395 366.305C104.845 366.505 105.265 366.855 105.655 367.355L104.185 368.48C103.835 367.92 103.375 367.64 102.805 367.64C102.515 367.64 102.28 367.7 102.1 367.82C101.92 367.93 101.83 368.1 101.83 368.33C101.83 368.49 101.895 368.63 102.025 368.75C102.165 368.86 102.45 368.97 102.88 369.08C103.95 369.36 104.68 369.705 105.07 370.115C105.47 370.525 105.67 371.045 105.67 371.675C105.67 372.145 105.535 372.575 105.265 372.965C105.005 373.345 104.645 373.645 104.185 373.865C103.725 374.085 103.21 374.195 102.64 374.195ZM110.194 374.195C109.404 374.195 108.704 374.015 108.094 373.655C107.484 373.285 107.009 372.79 106.669 372.17C106.329 371.55 106.159 370.865 106.159 370.115C106.159 369.375 106.334 368.69 106.684 368.06C107.034 367.43 107.514 366.93 108.124 366.56C108.744 366.19 109.434 366.005 110.194 366.005C110.954 366.005 111.634 366.19 112.234 366.56C112.844 366.93 113.314 367.43 113.644 368.06C113.984 368.68 114.154 369.365 114.154 370.115C114.154 370.365 114.134 370.605 114.094 370.835H108.259C108.379 371.305 108.604 371.685 108.934 371.975C109.274 372.255 109.694 372.395 110.194 372.395C110.614 372.395 110.989 372.3 111.319 372.11C111.649 371.91 111.909 371.655 112.099 371.345L113.674 372.53C113.354 373.03 112.884 373.435 112.264 373.745C111.644 374.045 110.954 374.195 110.194 374.195ZM112.114 369.32C111.994 368.87 111.759 368.495 111.409 368.195C111.059 367.895 110.644 367.745 110.164 367.745C109.694 367.745 109.284 367.89 108.934 368.18C108.594 368.47 108.369 368.85 108.259 369.32H112.114ZM115.043 363.05H117.068V374H115.043V363.05ZM118.836 365.675C118.836 364.885 119.071 364.25 119.541 363.77C120.011 363.29 120.641 363.05 121.431 363.05H122.271V364.775H121.746C121.156 364.775 120.861 365.085 120.861 365.705V366.2H122.451V367.925H120.861V374H118.836V367.925H117.741V366.2H118.836V365.675ZM123.389 374.195C123.009 374.195 122.689 374.065 122.429 373.805C122.169 373.545 122.039 373.235 122.039 372.875C122.039 372.515 122.169 372.21 122.429 371.96C122.689 371.7 123.009 371.57 123.389 371.57C123.769 371.57 124.084 371.7 124.334 371.96C124.594 372.21 124.724 372.515 124.724 372.875C124.724 373.245 124.594 373.56 124.334 373.82C124.084 374.07 123.769 374.195 123.389 374.195ZM131.065 374C130.275 374 129.68 373.805 129.28 373.415C128.88 373.025 128.68 372.415 128.68 371.585V367.925H127.585V366.2H128.68V364.625L130.705 364.415V366.2H132.355V367.925H130.705V371.48C130.705 371.96 130.915 372.2 131.335 372.2H132.175V374H131.065ZM133.032 366.2H134.997V367.685C135.137 367.115 135.407 366.685 135.807 366.395C136.217 366.105 136.752 365.98 137.412 366.02V367.925H137.127C136.527 367.925 136.032 368.115 135.642 368.495C135.252 368.865 135.057 369.37 135.057 370.01V374H133.032V366.2ZM139.071 377.135C138.511 377.135 138.061 377.085 137.721 376.985L138.021 375.05C138.301 375.12 138.606 375.155 138.936 375.155C139.306 375.155 139.616 375.045 139.866 374.825C140.126 374.615 140.316 374.33 140.436 373.97L140.541 373.64L137.451 366.2H139.896L141.411 370.655C141.551 371.035 141.661 371.45 141.741 371.9C141.821 371.45 141.931 371.035 142.071 370.655L143.586 366.2H145.986L142.536 374.495C142.176 375.345 141.721 375.995 141.171 376.445C140.631 376.905 139.931 377.135 139.071 377.135ZM148.823 366.2H150.788V367.685C150.928 367.115 151.198 366.685 151.598 366.395C152.008 366.105 152.543 365.98 153.203 366.02V367.925H152.918C152.318 367.925 151.823 368.115 151.433 368.495C151.043 368.865 150.848 369.37 150.848 370.01V374H148.823V366.2ZM157.231 374.195C156.441 374.195 155.741 374.015 155.131 373.655C154.521 373.285 154.046 372.79 153.706 372.17C153.366 371.55 153.196 370.865 153.196 370.115C153.196 369.375 153.371 368.69 153.721 368.06C154.071 367.43 154.551 366.93 155.161 366.56C155.781 366.19 156.471 366.005 157.231 366.005C157.991 366.005 158.671 366.19 159.271 366.56C159.881 366.93 160.351 367.43 160.681 368.06C161.021 368.68 161.191 369.365 161.191 370.115C161.191 370.365 161.171 370.605 161.131 370.835H155.296C155.416 371.305 155.641 371.685 155.971 371.975C156.311 372.255 156.731 372.395 157.231 372.395C157.651 372.395 158.026 372.3 158.356 372.11C158.686 371.91 158.946 371.655 159.136 371.345L160.711 372.53C160.391 373.03 159.921 373.435 159.301 373.745C158.681 374.045 157.991 374.195 157.231 374.195ZM159.151 369.32C159.031 368.87 158.796 368.495 158.446 368.195C158.096 367.895 157.681 367.745 157.201 367.745C156.731 367.745 156.321 367.89 155.971 368.18C155.631 368.47 155.406 368.85 155.296 369.32H159.151ZM162.079 363.05H164.104V374H162.079V363.05ZM169.157 374.195C168.367 374.195 167.657 374.015 167.027 373.655C166.397 373.285 165.902 372.79 165.542 372.17C165.182 371.54 165.002 370.855 165.002 370.115C165.002 369.375 165.182 368.69 165.542 368.06C165.902 367.43 166.397 366.935 167.027 366.575C167.657 366.205 168.367 366.02 169.157 366.02C169.947 366.02 170.657 366.205 171.287 366.575C171.917 366.935 172.412 367.43 172.772 368.06C173.132 368.69 173.312 369.375 173.312 370.115C173.312 370.855 173.132 371.54 172.772 372.17C172.412 372.79 171.917 373.285 171.287 373.655C170.657 374.015 169.947 374.195 169.157 374.195ZM167.027 370.115C167.027 370.525 167.112 370.9 167.282 371.24C167.462 371.58 167.712 371.85 168.032 372.05C168.362 372.25 168.737 372.35 169.157 372.35C169.577 372.35 169.947 372.25 170.267 372.05C170.597 371.85 170.847 371.58 171.017 371.24C171.197 370.9 171.287 370.525 171.287 370.115C171.287 369.705 171.197 369.33 171.017 368.99C170.837 368.65 170.587 368.38 170.267 368.18C169.947 367.97 169.577 367.865 169.157 367.865C168.737 367.865 168.367 367.97 168.047 368.18C167.727 368.38 167.477 368.65 167.297 368.99C167.117 369.33 167.027 369.705 167.027 370.115ZM177.69 374.195C176.99 374.195 176.345 374.015 175.755 373.655C175.165 373.285 174.695 372.79 174.345 372.17C174.005 371.55 173.835 370.87 173.835 370.13C173.835 369.39 174.005 368.71 174.345 368.09C174.695 367.46 175.165 366.96 175.755 366.59C176.345 366.22 176.99 366.035 177.69 366.035C178.33 366.035 178.845 366.155 179.235 366.395C179.635 366.635 179.945 366.98 180.165 367.43V366.2H182.175V374H180.21V372.725C179.98 373.195 179.665 373.56 179.265 373.82C178.875 374.07 178.35 374.195 177.69 374.195ZM175.86 370.115C175.86 370.515 175.95 370.89 176.13 371.24C176.32 371.58 176.575 371.855 176.895 372.065C177.225 372.265 177.6 372.365 178.02 372.365C178.45 372.365 178.83 372.265 179.16 372.065C179.5 371.865 179.76 371.595 179.94 371.255C180.12 370.915 180.21 370.54 180.21 370.13C180.21 369.72 180.12 369.345 179.94 369.005C179.76 368.655 179.5 368.38 179.16 368.18C178.83 367.97 178.45 367.865 178.02 367.865C177.6 367.865 177.225 367.97 176.895 368.18C176.565 368.38 176.31 368.65 176.13 368.99C175.95 369.33 175.86 369.705 175.86 370.115ZM186.933 374.195C186.233 374.195 185.588 374.015 184.998 373.655C184.408 373.285 183.938 372.79 183.588 372.17C183.248 371.55 183.078 370.87 183.078 370.13C183.078 369.39 183.248 368.71 183.588 368.09C183.938 367.46 184.408 366.96 184.998 366.59C185.588 366.22 186.233 366.035 186.933 366.035C187.573 366.035 188.088 366.155 188.478 366.395C188.868 366.625 189.173 366.96 189.393 367.4V363.05H191.418V374H189.453V372.725C189.223 373.195 188.908 373.56 188.508 373.82C188.118 374.07 187.593 374.195 186.933 374.195ZM185.103 370.115C185.103 370.515 185.193 370.89 185.373 371.24C185.563 371.58 185.818 371.855 186.138 372.065C186.468 372.265 186.843 372.365 187.263 372.365C187.693 372.365 188.073 372.265 188.403 372.065C188.743 371.865 189.003 371.595 189.183 371.255C189.363 370.915 189.453 370.54 189.453 370.13C189.453 369.72 189.363 369.345 189.183 369.005C189.003 368.655 188.743 368.38 188.403 368.18C188.073 367.97 187.693 367.865 187.263 367.865C186.843 367.865 186.468 367.97 186.138 368.18C185.808 368.38 185.553 368.65 185.373 368.99C185.193 369.33 185.103 369.705 185.103 370.115ZM192.621 366.2H194.646V374H192.621V366.2ZM192.411 364.355C192.411 364.025 192.526 363.745 192.756 363.515C192.996 363.285 193.286 363.17 193.626 363.17C193.976 363.17 194.266 363.285 194.496 363.515C194.726 363.745 194.841 364.025 194.841 364.355C194.841 364.695 194.726 364.98 194.496 365.21C194.266 365.44 193.976 365.555 193.626 365.555C193.286 365.555 192.996 365.44 192.756 365.21C192.526 364.97 192.411 364.685 192.411 364.355ZM195.844 366.2H197.839V367.34C198.249 366.46 199.044 366.02 200.224 366.02C200.784 366.02 201.289 366.155 201.739 366.425C202.189 366.685 202.544 367.06 202.804 367.55C203.064 368.03 203.194 368.59 203.194 369.23V374H201.169V369.725C201.169 369.075 201.019 368.59 200.719 368.27C200.419 367.95 200.009 367.79 199.489 367.79C199.029 367.79 198.644 367.955 198.334 368.285C198.024 368.605 197.869 369.085 197.869 369.725V374H195.844V366.2ZM208.121 377.195C207.301 377.195 206.586 377.08 205.976 376.85C205.366 376.63 204.836 376.255 204.386 375.725L205.646 374.24C205.996 374.64 206.366 374.92 206.756 375.08C207.156 375.24 207.616 375.32 208.136 375.32C208.496 375.32 208.831 375.225 209.141 375.035C209.451 374.855 209.696 374.6 209.876 374.27C210.066 373.95 210.161 373.59 210.161 373.19V372.845C209.931 373.235 209.631 373.535 209.261 373.745C208.891 373.945 208.406 374.045 207.806 374.045C207.106 374.045 206.466 373.87 205.886 373.52C205.306 373.16 204.851 372.675 204.521 372.065C204.191 371.445 204.026 370.765 204.026 370.025C204.026 369.285 204.191 368.61 204.521 368C204.851 367.38 205.306 366.895 205.886 366.545C206.466 366.185 207.106 366.005 207.806 366.005C208.426 366.005 208.921 366.115 209.291 366.335C209.671 366.545 209.971 366.855 210.191 367.265V366.2H212.186V373.31C212.186 374.1 212.011 374.785 211.661 375.365C211.321 375.955 210.841 376.405 210.221 376.715C209.611 377.035 208.911 377.195 208.121 377.195ZM206.051 370.025C206.051 370.645 206.236 371.165 206.606 371.585C206.986 371.995 207.496 372.2 208.136 372.2C208.786 372.2 209.301 371.995 209.681 371.585C210.061 371.175 210.251 370.655 210.251 370.025C210.251 369.395 210.061 368.875 209.681 368.465C209.301 368.055 208.786 367.85 208.136 367.85C207.496 367.85 206.986 368.055 206.606 368.465C206.236 368.875 206.051 369.395 206.051 370.025ZM216.634 377.135C216.074 377.135 215.624 377.085 215.284 376.985L215.584 375.05C215.864 375.12 216.169 375.155 216.499 375.155C216.869 375.155 217.179 375.045 217.429 374.825C217.689 374.615 217.879 374.33 217.999 373.97L218.104 373.64L215.014 366.2H217.459L218.974 370.655C219.114 371.035 219.224 371.45 219.304 371.9C219.384 371.45 219.494 371.035 219.634 370.655L221.149 366.2H223.549L220.099 374.495C219.739 375.345 219.284 375.995 218.734 376.445C218.194 376.905 217.494 377.135 216.634 377.135ZM227.282 374.195C226.492 374.195 225.782 374.015 225.152 373.655C224.522 373.285 224.027 372.79 223.667 372.17C223.307 371.54 223.127 370.855 223.127 370.115C223.127 369.375 223.307 368.69 223.667 368.06C224.027 367.43 224.522 366.935 225.152 366.575C225.782 366.205 226.492 366.02 227.282 366.02C228.072 366.02 228.782 366.205 229.412 366.575C230.042 366.935 230.537 367.43 230.897 368.06C231.257 368.69 231.437 369.375 231.437 370.115C231.437 370.855 231.257 371.54 230.897 372.17C230.537 372.79 230.042 373.285 229.412 373.655C228.782 374.015 228.072 374.195 227.282 374.195ZM225.152 370.115C225.152 370.525 225.237 370.9 225.407 371.24C225.587 371.58 225.837 371.85 226.157 372.05C226.487 372.25 226.862 372.35 227.282 372.35C227.702 372.35 228.072 372.25 228.392 372.05C228.722 371.85 228.972 371.58 229.142 371.24C229.322 370.9 229.412 370.525 229.412 370.115C229.412 369.705 229.322 369.33 229.142 368.99C228.962 368.65 228.712 368.38 228.392 368.18C228.072 367.97 227.702 367.865 227.282 367.865C226.862 367.865 226.492 367.97 226.172 368.18C225.852 368.38 225.602 368.65 225.422 368.99C225.242 369.33 225.152 369.705 225.152 370.115ZM235.228 374.18C234.668 374.18 234.163 374.05 233.713 373.79C233.263 373.52 232.908 373.145 232.648 372.665C232.388 372.175 232.258 371.61 232.258 370.97V366.2H234.283V370.475C234.283 371.765 234.803 372.41 235.843 372.41C236.303 372.41 236.688 372.25 236.998 371.93C237.308 371.6 237.463 371.115 237.463 370.475V366.2H239.488V374H237.523V372.83C237.333 373.29 237.053 373.63 236.683 373.85C236.313 374.07 235.828 374.18 235.228 374.18ZM240.683 366.2H242.648V367.685C242.788 367.115 243.058 366.685 243.458 366.395C243.868 366.105 244.403 365.98 245.063 366.02V367.925H244.778C244.178 367.925 243.683 368.115 243.293 368.495C242.903 368.865 242.708 369.37 242.708 370.01V374H240.683V366.2ZM248.198 366.2H250.193V367.46C250.423 367 250.733 366.65 251.123 366.41C251.513 366.16 252.033 366.035 252.683 366.035C253.383 366.035 254.028 366.22 254.618 366.59C255.208 366.96 255.673 367.46 256.013 368.09C256.363 368.71 256.538 369.39 256.538 370.13C256.538 370.87 256.363 371.55 256.013 372.17C255.673 372.79 255.208 373.285 254.618 373.655C254.028 374.015 253.383 374.195 252.683 374.195C252.053 374.195 251.538 374.08 251.138 373.85C250.748 373.61 250.443 373.275 250.223 372.845V377H248.198V366.2ZM250.163 370.13C250.163 370.54 250.253 370.915 250.433 371.255C250.613 371.595 250.868 371.865 251.198 372.065C251.538 372.265 251.923 372.365 252.353 372.365C252.773 372.365 253.143 372.265 253.463 372.065C253.793 371.855 254.048 371.58 254.228 371.24C254.418 370.89 254.513 370.515 254.513 370.115C254.513 369.705 254.423 369.33 254.243 368.99C254.063 368.65 253.808 368.38 253.478 368.18C253.148 367.97 252.773 367.865 252.353 367.865C251.923 367.865 251.538 367.97 251.198 368.18C250.868 368.38 250.613 368.655 250.433 369.005C250.253 369.345 250.163 369.72 250.163 370.13ZM260.923 374.195C260.223 374.195 259.578 374.015 258.988 373.655C258.398 373.285 257.928 372.79 257.578 372.17C257.238 371.55 257.068 370.87 257.068 370.13C257.068 369.39 257.238 368.71 257.578 368.09C257.928 367.46 258.398 366.96 258.988 366.59C259.578 366.22 260.223 366.035 260.923 366.035C261.563 366.035 262.078 366.155 262.468 366.395C262.868 366.635 263.178 366.98 263.398 367.43V366.2H265.408V374H263.443V372.725C263.213 373.195 262.898 373.56 262.498 373.82C262.108 374.07 261.583 374.195 260.923 374.195ZM259.093 370.115C259.093 370.515 259.183 370.89 259.363 371.24C259.553 371.58 259.808 371.855 260.128 372.065C260.458 372.265 260.833 372.365 261.253 372.365C261.683 372.365 262.063 372.265 262.393 372.065C262.733 371.865 262.993 371.595 263.173 371.255C263.353 370.915 263.443 370.54 263.443 370.13C263.443 369.72 263.353 369.345 263.173 369.005C262.993 368.655 262.733 368.38 262.393 368.18C262.063 367.97 261.683 367.865 261.253 367.865C260.833 367.865 260.458 367.97 260.128 368.18C259.798 368.38 259.543 368.65 259.363 368.99C259.183 369.33 259.093 369.705 259.093 370.115ZM270.406 377.195C269.586 377.195 268.871 377.08 268.261 376.85C267.651 376.63 267.121 376.255 266.671 375.725L267.931 374.24C268.281 374.64 268.651 374.92 269.041 375.08C269.441 375.24 269.901 375.32 270.421 375.32C270.781 375.32 271.116 375.225 271.426 375.035C271.736 374.855 271.981 374.6 272.161 374.27C272.351 373.95 272.446 373.59 272.446 373.19V372.845C272.216 373.235 271.916 373.535 271.546 373.745C271.176 373.945 270.691 374.045 270.091 374.045C269.391 374.045 268.751 373.87 268.171 373.52C267.591 373.16 267.136 372.675 266.806 372.065C266.476 371.445 266.311 370.765 266.311 370.025C266.311 369.285 266.476 368.61 266.806 368C267.136 367.38 267.591 366.895 268.171 366.545C268.751 366.185 269.391 366.005 270.091 366.005C270.711 366.005 271.206 366.115 271.576 366.335C271.956 366.545 272.256 366.855 272.476 367.265V366.2H274.471V373.31C274.471 374.1 274.296 374.785 273.946 375.365C273.606 375.955 273.126 376.405 272.506 376.715C271.896 377.035 271.196 377.195 270.406 377.195ZM268.336 370.025C268.336 370.645 268.521 371.165 268.891 371.585C269.271 371.995 269.781 372.2 270.421 372.2C271.071 372.2 271.586 371.995 271.966 371.585C272.346 371.175 272.536 370.655 272.536 370.025C272.536 369.395 272.346 368.875 271.966 368.465C271.586 368.055 271.071 367.85 270.421 367.85C269.781 367.85 269.271 368.055 268.891 368.465C268.521 368.875 268.336 369.395 268.336 370.025ZM279.398 374.195C278.608 374.195 277.908 374.015 277.298 373.655C276.688 373.285 276.213 372.79 275.873 372.17C275.533 371.55 275.363 370.865 275.363 370.115C275.363 369.375 275.538 368.69 275.888 368.06C276.238 367.43 276.718 366.93 277.328 366.56C277.948 366.19 278.638 366.005 279.398 366.005C280.158 366.005 280.838 366.19 281.438 366.56C282.048 366.93 282.518 367.43 282.848 368.06C283.188 368.68 283.358 369.365 283.358 370.115C283.358 370.365 283.338 370.605 283.298 370.835H277.463C277.583 371.305 277.808 371.685 278.138 371.975C278.478 372.255 278.898 372.395 279.398 372.395C279.818 372.395 280.193 372.3 280.523 372.11C280.853 371.91 281.113 371.655 281.303 371.345L282.878 372.53C282.558 373.03 282.088 373.435 281.468 373.745C280.848 374.045 280.158 374.195 279.398 374.195ZM281.318 369.32C281.198 368.87 280.963 368.495 280.613 368.195C280.263 367.895 279.848 367.745 279.368 367.745C278.898 367.745 278.488 367.89 278.138 368.18C277.798 368.47 277.573 368.85 277.463 369.32H281.318ZM283.849 375.08L284.269 374.93C284.589 374.82 284.824 374.705 284.974 374.585C285.134 374.465 285.249 374.305 285.319 374.105C285.199 374.135 285.084 374.15 284.974 374.15C284.674 374.15 284.404 374.03 284.164 373.79C283.924 373.55 283.804 373.27 283.804 372.95C283.804 372.63 283.924 372.355 284.164 372.125C284.414 371.885 284.704 371.765 285.034 371.765C285.484 371.765 285.844 371.92 286.114 372.23C286.394 372.54 286.534 372.965 286.534 373.505C286.534 374.075 286.364 374.57 286.024 374.99C285.694 375.42 285.244 375.735 284.674 375.935L284.254 376.085L283.849 375.08ZM293.625 374.195C292.835 374.195 292.125 374.015 291.495 373.655C290.865 373.285 290.37 372.79 290.01 372.17C289.65 371.54 289.47 370.855 289.47 370.115C289.47 369.375 289.65 368.69 290.01 368.06C290.37 367.43 290.865 366.935 291.495 366.575C292.125 366.205 292.835 366.02 293.625 366.02C294.415 366.02 295.125 366.205 295.755 366.575C296.385 366.935 296.88 367.43 297.24 368.06C297.6 368.69 297.78 369.375 297.78 370.115C297.78 370.855 297.6 371.54 297.24 372.17C296.88 372.79 296.385 373.285 295.755 373.655C295.125 374.015 294.415 374.195 293.625 374.195ZM291.495 370.115C291.495 370.525 291.58 370.9 291.75 371.24C291.93 371.58 292.18 371.85 292.5 372.05C292.83 372.25 293.205 372.35 293.625 372.35C294.045 372.35 294.415 372.25 294.735 372.05C295.065 371.85 295.315 371.58 295.485 371.24C295.665 370.9 295.755 370.525 295.755 370.115C295.755 369.705 295.665 369.33 295.485 368.99C295.305 368.65 295.055 368.38 294.735 368.18C294.415 367.97 294.045 367.865 293.625 367.865C293.205 367.865 292.835 367.97 292.515 368.18C292.195 368.38 291.945 368.65 291.765 368.99C291.585 369.33 291.495 369.705 291.495 370.115ZM298.676 366.2H300.641V367.685C300.781 367.115 301.051 366.685 301.451 366.395C301.861 366.105 302.396 365.98 303.056 366.02V367.925H302.771C302.171 367.925 301.676 368.115 301.286 368.495C300.896 368.865 300.701 369.37 300.701 370.01V374H298.676V366.2ZM306.191 366.2H308.186V367.46C308.416 367 308.726 366.65 309.116 366.41C309.506 366.16 310.026 366.035 310.676 366.035C311.376 366.035 312.021 366.22 312.611 366.59C313.201 366.96 313.666 367.46 314.006 368.09C314.356 368.71 314.531 369.39 314.531 370.13C314.531 370.87 314.356 371.55 314.006 372.17C313.666 372.79 313.201 373.285 312.611 373.655C312.021 374.015 311.376 374.195 310.676 374.195C310.046 374.195 309.531 374.08 309.131 373.85C308.741 373.61 308.436 373.275 308.216 372.845V377H306.191V366.2ZM308.156 370.13C308.156 370.54 308.246 370.915 308.426 371.255C308.606 371.595 308.861 371.865 309.191 372.065C309.531 372.265 309.916 372.365 310.346 372.365C310.766 372.365 311.136 372.265 311.456 372.065C311.786 371.855 312.041 371.58 312.221 371.24C312.411 370.89 312.506 370.515 312.506 370.115C312.506 369.705 312.416 369.33 312.236 368.99C312.056 368.65 311.801 368.38 311.471 368.18C311.141 367.97 310.766 367.865 310.346 367.865C309.916 367.865 309.531 367.97 309.191 368.18C308.861 368.38 308.606 368.655 308.426 369.005C308.246 369.345 308.156 369.72 308.156 370.13ZM315.434 366.2H317.399V367.685C317.539 367.115 317.809 366.685 318.209 366.395C318.619 366.105 319.154 365.98 319.814 366.02V367.925H319.529C318.929 367.925 318.434 368.115 318.044 368.495C317.654 368.865 317.459 369.37 317.459 370.01V374H315.434V366.2ZM323.842 374.195C323.052 374.195 322.352 374.015 321.742 373.655C321.132 373.285 320.657 372.79 320.317 372.17C319.977 371.55 319.807 370.865 319.807 370.115C319.807 369.375 319.982 368.69 320.332 368.06C320.682 367.43 321.162 366.93 321.772 366.56C322.392 366.19 323.082 366.005 323.842 366.005C324.602 366.005 325.282 366.19 325.882 366.56C326.492 366.93 326.962 367.43 327.292 368.06C327.632 368.68 327.802 369.365 327.802 370.115C327.802 370.365 327.782 370.605 327.742 370.835H321.907C322.027 371.305 322.252 371.685 322.582 371.975C322.922 372.255 323.342 372.395 323.842 372.395C324.262 372.395 324.637 372.3 324.967 372.11C325.297 371.91 325.557 371.655 325.747 371.345L327.322 372.53C327.002 373.03 326.532 373.435 325.912 373.745C325.292 374.045 324.602 374.195 323.842 374.195ZM325.762 369.32C325.642 368.87 325.407 368.495 325.057 368.195C324.707 367.895 324.292 367.745 323.812 367.745C323.342 367.745 322.932 367.89 322.582 368.18C322.242 368.47 322.017 368.85 321.907 369.32H325.762ZM331.141 374.195C329.831 374.195 328.751 373.74 327.901 372.83L329.266 371.585C329.836 372.225 330.446 372.545 331.096 372.545C331.436 372.545 331.701 372.47 331.891 372.32C332.081 372.17 332.176 371.975 332.176 371.735C332.176 371.515 332.081 371.345 331.891 371.225C331.711 371.095 331.331 370.96 330.751 370.82C329.801 370.59 329.161 370.275 328.831 369.875C328.511 369.475 328.351 368.98 328.351 368.39C328.351 367.69 328.611 367.12 329.131 366.68C329.651 366.23 330.361 366.005 331.261 366.005C331.911 366.005 332.456 366.105 332.896 366.305C333.346 366.505 333.766 366.855 334.156 367.355L332.686 368.48C332.336 367.92 331.876 367.64 331.306 367.64C331.016 367.64 330.781 367.7 330.601 367.82C330.421 367.93 330.331 368.1 330.331 368.33C330.331 368.49 330.396 368.63 330.526 368.75C330.666 368.86 330.951 368.97 331.381 369.08C332.451 369.36 333.181 369.705 333.571 370.115C333.971 370.525 334.171 371.045 334.171 371.675C334.171 372.145 334.036 372.575 333.766 372.965C333.506 373.345 333.146 373.645 332.686 373.865C332.226 374.085 331.711 374.195 331.141 374.195ZM337.63 374.195C336.32 374.195 335.24 373.74 334.39 372.83L335.755 371.585C336.325 372.225 336.935 372.545 337.585 372.545C337.925 372.545 338.19 372.47 338.38 372.32C338.57 372.17 338.665 371.975 338.665 371.735C338.665 371.515 338.57 371.345 338.38 371.225C338.2 371.095 337.82 370.96 337.24 370.82C336.29 370.59 335.65 370.275 335.32 369.875C335 369.475 334.84 368.98 334.84 368.39C334.84 367.69 335.1 367.12 335.62 366.68C336.14 366.23 336.85 366.005 337.75 366.005C338.4 366.005 338.945 366.105 339.385 366.305C339.835 366.505 340.255 366.855 340.645 367.355L339.175 368.48C338.825 367.92 338.365 367.64 337.795 367.64C337.505 367.64 337.27 367.7 337.09 367.82C336.91 367.93 336.82 368.1 336.82 368.33C336.82 368.49 336.885 368.63 337.015 368.75C337.155 368.86 337.44 368.97 337.87 369.08C338.94 369.36 339.67 369.705 340.06 370.115C340.46 370.525 340.66 371.045 340.66 371.675C340.66 372.145 340.525 372.575 340.255 372.965C339.995 373.345 339.635 373.645 339.175 373.865C338.715 374.085 338.2 374.195 337.63 374.195ZM341.45 366.2H343.475V374H341.45V366.2ZM341.24 364.355C341.24 364.025 341.355 363.745 341.585 363.515C341.825 363.285 342.115 363.17 342.455 363.17C342.805 363.17 343.095 363.285 343.325 363.515C343.555 363.745 343.67 364.025 343.67 364.355C343.67 364.695 343.555 364.98 343.325 365.21C343.095 365.44 342.805 365.555 342.455 365.555C342.115 365.555 341.825 365.44 341.585 365.21C341.355 364.97 341.24 364.685 341.24 364.355ZM344.672 366.2H346.667V367.34C347.077 366.46 347.872 366.02 349.052 366.02C349.612 366.02 350.117 366.155 350.567 366.425C351.017 366.685 351.372 367.06 351.632 367.55C351.892 368.03 352.022 368.59 352.022 369.23V374H349.997V369.725C349.997 369.075 349.847 368.59 349.547 368.27C349.247 367.95 348.837 367.79 348.317 367.79C347.857 367.79 347.472 367.955 347.162 368.285C346.852 368.605 346.697 369.085 346.697 369.725V374H344.672V366.2ZM356.949 377.195C356.129 377.195 355.414 377.08 354.804 376.85C354.194 376.63 353.664 376.255 353.214 375.725L354.474 374.24C354.824 374.64 355.194 374.92 355.584 375.08C355.984 375.24 356.444 375.32 356.964 375.32C357.324 375.32 357.659 375.225 357.969 375.035C358.279 374.855 358.524 374.6 358.704 374.27C358.894 373.95 358.989 373.59 358.989 373.19V372.845C358.759 373.235 358.459 373.535 358.089 373.745C357.719 373.945 357.234 374.045 356.634 374.045C355.934 374.045 355.294 373.87 354.714 373.52C354.134 373.16 353.679 372.675 353.349 372.065C353.019 371.445 352.854 370.765 352.854 370.025C352.854 369.285 353.019 368.61 353.349 368C353.679 367.38 354.134 366.895 354.714 366.545C355.294 366.185 355.934 366.005 356.634 366.005C357.254 366.005 357.749 366.115 358.119 366.335C358.499 366.545 358.799 366.855 359.019 367.265V366.2H361.014V373.31C361.014 374.1 360.839 374.785 360.489 375.365C360.149 375.955 359.669 376.405 359.049 376.715C358.439 377.035 357.739 377.195 356.949 377.195ZM354.879 370.025C354.879 370.645 355.064 371.165 355.434 371.585C355.814 371.995 356.324 372.2 356.964 372.2C357.614 372.2 358.129 371.995 358.509 371.585C358.889 371.175 359.079 370.655 359.079 370.025C359.079 369.395 358.889 368.875 358.509 368.465C358.129 368.055 357.614 367.85 356.964 367.85C356.324 367.85 355.814 368.055 355.434 368.465C355.064 368.875 354.879 369.395 354.879 370.025ZM365.942 367.19C365.492 367.19 365.127 367.035 364.847 366.725C364.577 366.415 364.442 365.99 364.442 365.45C364.442 364.88 364.607 364.385 364.937 363.965C365.277 363.535 365.732 363.22 366.302 363.02L366.722 362.87L367.127 363.875L366.707 364.025C366.387 364.135 366.147 364.25 365.987 364.37C365.837 364.49 365.727 364.65 365.657 364.85C365.777 364.82 365.892 364.805 366.002 364.805C366.312 364.805 366.582 364.925 366.812 365.165C367.052 365.395 367.172 365.675 367.172 366.005C367.172 366.325 367.047 366.605 366.797 366.845C366.557 367.075 366.272 367.19 365.942 367.19ZM369.092 367.19C368.642 367.19 368.277 367.035 367.997 366.725C367.727 366.415 367.592 365.99 367.592 365.45C367.592 364.88 367.757 364.385 368.087 363.965C368.427 363.535 368.882 363.22 369.452 363.02L369.872 362.87L370.277 363.875L369.857 364.025C369.537 364.135 369.297 364.25 369.137 364.37C368.987 364.49 368.877 364.65 368.807 364.85C368.927 364.82 369.042 364.805 369.152 364.805C369.462 364.805 369.732 364.925 369.962 365.165C370.202 365.395 370.322 365.675 370.322 366.005C370.322 366.325 370.197 366.605 369.947 366.845C369.707 367.075 369.422 367.19 369.092 367.19ZM371.45 366.2H373.445V367.34C373.855 366.46 374.65 366.02 375.83 366.02C376.39 366.02 376.895 366.155 377.345 366.425C377.795 366.685 378.15 367.06 378.41 367.55C378.67 368.03 378.8 368.59 378.8 369.23V374H376.775V369.725C376.775 369.075 376.625 368.59 376.325 368.27C376.025 367.95 375.615 367.79 375.095 367.79C374.635 367.79 374.25 367.955 373.94 368.285C373.63 368.605 373.475 369.085 373.475 369.725V374H371.45V366.2ZM383.666 374.195C382.876 374.195 382.176 374.015 381.566 373.655C380.956 373.285 380.481 372.79 380.141 372.17C379.801 371.55 379.631 370.865 379.631 370.115C379.631 369.375 379.806 368.69 380.156 368.06C380.506 367.43 380.986 366.93 381.596 366.56C382.216 366.19 382.906 366.005 383.666 366.005C384.426 366.005 385.106 366.19 385.706 366.56C386.316 366.93 386.786 367.43 387.116 368.06C387.456 368.68 387.626 369.365 387.626 370.115C387.626 370.365 387.606 370.605 387.566 370.835H381.731C381.851 371.305 382.076 371.685 382.406 371.975C382.746 372.255 383.166 372.395 383.666 372.395C384.086 372.395 384.461 372.3 384.791 372.11C385.121 371.91 385.381 371.655 385.571 371.345L387.146 372.53C386.826 373.03 386.356 373.435 385.736 373.745C385.116 374.045 384.426 374.195 383.666 374.195ZM385.586 369.32C385.466 368.87 385.231 368.495 384.881 368.195C384.531 367.895 384.116 367.745 383.636 367.745C383.166 367.745 382.756 367.89 382.406 368.18C382.066 368.47 381.841 368.85 381.731 369.32H385.586ZM389.943 370.1L387.168 366.2H389.583L391.173 368.675L392.823 366.2H395.193L392.418 370.13L395.343 374H392.883L391.188 371.51L389.433 374H387.018L389.943 370.1ZM398.75 374C397.96 374 397.365 373.805 396.965 373.415C396.565 373.025 396.365 372.415 396.365 371.585V367.925H395.27V366.2H396.365V364.625L398.39 364.415V366.2H400.04V367.925H398.39V371.48C398.39 371.96 398.6 372.2 399.02 372.2H399.86V374H398.75ZM401.797 374.195C401.417 374.195 401.097 374.065 400.837 373.805C400.577 373.545 400.447 373.235 400.447 372.875C400.447 372.515 400.577 372.21 400.837 371.96C401.097 371.7 401.417 371.57 401.797 371.57C402.177 371.57 402.492 371.7 402.742 371.96C403.002 372.21 403.132 372.515 403.132 372.875C403.132 373.245 403.002 373.56 402.742 373.82C402.492 374.07 402.177 374.195 401.797 374.195ZM402.533 366.17L402.953 366.02C403.273 365.91 403.508 365.795 403.658 365.675C403.818 365.555 403.933 365.395 404.003 365.195C403.883 365.225 403.768 365.24 403.658 365.24C403.358 365.24 403.088 365.12 402.848 364.88C402.608 364.64 402.488 364.36 402.488 364.04C402.488 363.72 402.608 363.445 402.848 363.215C403.098 362.975 403.388 362.855 403.718 362.855C404.168 362.855 404.528 363.01 404.798 363.32C405.078 363.63 405.218 364.055 405.218 364.595C405.218 365.165 405.048 365.665 404.708 366.095C404.378 366.515 403.928 366.825 403.358 367.025L402.938 367.175L402.533 366.17ZM405.638 366.17L406.058 366.02C406.378 365.91 406.613 365.795 406.763 365.675C406.923 365.555 407.038 365.395 407.108 365.195C406.988 365.225 406.873 365.24 406.763 365.24C406.463 365.24 406.193 365.12 405.953 364.88C405.713 364.64 405.593 364.36 405.593 364.04C405.593 363.72 405.713 363.445 405.953 363.215C406.203 362.975 406.493 362.855 406.823 362.855C407.273 362.855 407.633 363.01 407.903 363.32C408.183 363.63 408.323 364.055 408.323 364.595C408.323 365.165 408.153 365.665 407.813 366.095C407.483 366.515 407.033 366.825 406.463 367.025L406.043 367.175L405.638 366.17Z" fill="#ACACAC"/>
<path d="M98.2729 260.65C95.6395 260.65 93.2729 260.05 91.1729 258.85C89.0729 257.617 87.4229 255.967 86.2229 253.9C85.0229 251.8 84.4229 249.517 84.4229 247.05C84.4229 244.583 85.0229 242.3 86.2229 240.2C87.4229 238.1 89.0729 236.45 91.1729 235.25C93.2729 234.017 95.6395 233.4 98.2729 233.4C100.906 233.4 103.273 234.017 105.373 235.25C107.473 236.45 109.123 238.1 110.323 240.2C111.523 242.3 112.123 244.583 112.123 247.05C112.123 249.517 111.523 251.8 110.323 253.9C109.123 255.967 107.473 257.617 105.373 258.85C103.273 260.05 100.906 260.65 98.2729 260.65ZM91.1729 247.05C91.1729 248.417 91.4562 249.667 92.0229 250.8C92.6229 251.933 93.4562 252.833 94.5229 253.5C95.6229 254.167 96.8729 254.5 98.2729 254.5C99.6729 254.5 100.906 254.167 101.973 253.5C103.073 252.833 103.906 251.933 104.473 250.8C105.073 249.667 105.373 248.417 105.373 247.05C105.373 245.683 105.073 244.433 104.473 243.3C103.873 242.167 103.04 241.267 101.973 240.6C100.906 239.9 99.6729 239.55 98.2729 239.55C96.8729 239.55 95.6395 239.9 94.5729 240.6C93.5062 241.267 92.6729 242.167 92.0729 243.3C91.4729 244.433 91.1729 245.683 91.1729 247.05ZM127.716 260.65C125.083 260.65 122.716 260.05 120.616 258.85C118.516 257.617 116.866 255.967 115.666 253.9C114.466 251.8 113.866 249.517 113.866 247.05C113.866 244.583 114.466 242.3 115.666 240.2C116.866 238.1 118.516 236.45 120.616 235.25C122.716 234.017 125.083 233.4 127.716 233.4C130.35 233.4 132.716 234.017 134.816 235.25C136.916 236.45 138.566 238.1 139.766 240.2C140.966 242.3 141.566 244.583 141.566 247.05C141.566 249.517 140.966 251.8 139.766 253.9C138.566 255.967 136.916 257.617 134.816 258.85C132.716 260.05 130.35 260.65 127.716 260.65ZM120.616 247.05C120.616 248.417 120.9 249.667 121.466 250.8C122.066 251.933 122.9 252.833 123.966 253.5C125.066 254.167 126.316 254.5 127.716 254.5C129.116 254.5 130.35 254.167 131.416 253.5C132.516 252.833 133.35 251.933 133.916 250.8C134.516 249.667 134.816 248.417 134.816 247.05C134.816 245.683 134.516 244.433 133.916 243.3C133.316 242.167 132.483 241.267 131.416 240.6C130.35 239.9 129.116 239.55 127.716 239.55C126.316 239.55 125.083 239.9 124.016 240.6C122.95 241.267 122.116 242.167 121.516 243.3C120.916 244.433 120.616 245.683 120.616 247.05ZM144.554 234H151.204V238.2C151.97 236.667 153.004 235.5 154.304 234.7C155.604 233.867 157.337 233.45 159.504 233.45C161.837 233.45 163.987 234.067 165.954 235.3C167.92 236.533 169.47 238.2 170.604 240.3C171.77 242.367 172.354 244.633 172.354 247.1C172.354 249.567 171.77 251.833 170.604 253.9C169.47 255.967 167.92 257.617 165.954 258.85C163.987 260.05 161.837 260.65 159.504 260.65C157.404 260.65 155.687 260.267 154.354 259.5C153.054 258.7 152.037 257.583 151.304 256.15V270H144.554V234ZM151.104 247.1C151.104 248.467 151.404 249.717 152.004 250.85C152.604 251.983 153.454 252.883 154.554 253.55C155.687 254.217 156.97 254.55 158.404 254.55C159.804 254.55 161.037 254.217 162.104 253.55C163.204 252.85 164.054 251.933 164.654 250.8C165.287 249.633 165.604 248.383 165.604 247.05C165.604 245.683 165.304 244.433 164.704 243.3C164.104 242.167 163.254 241.267 162.154 240.6C161.054 239.9 159.804 239.55 158.404 239.55C156.97 239.55 155.687 239.9 154.554 240.6C153.454 241.267 152.604 242.183 152.004 243.35C151.404 244.483 151.104 245.733 151.104 247.1ZM183.727 260.65C179.36 260.65 175.76 259.133 172.927 256.1L177.477 251.95C179.377 254.083 181.41 255.15 183.577 255.15C184.71 255.15 185.594 254.9 186.227 254.4C186.86 253.9 187.177 253.25 187.177 252.45C187.177 251.717 186.86 251.15 186.227 250.75C185.627 250.317 184.36 249.867 182.427 249.4C179.26 248.633 177.127 247.583 176.027 246.25C174.96 244.917 174.427 243.267 174.427 241.3C174.427 238.967 175.294 237.067 177.027 235.6C178.76 234.1 181.127 233.35 184.127 233.35C186.294 233.35 188.11 233.683 189.577 234.35C191.077 235.017 192.477 236.183 193.777 237.85L188.877 241.6C187.71 239.733 186.177 238.8 184.277 238.8C183.31 238.8 182.527 239 181.927 239.4C181.327 239.767 181.027 240.333 181.027 241.1C181.027 241.633 181.244 242.1 181.677 242.5C182.144 242.867 183.094 243.233 184.527 243.6C188.094 244.533 190.527 245.683 191.827 247.05C193.16 248.417 193.827 250.15 193.827 252.25C193.827 253.817 193.377 255.25 192.477 256.55C191.61 257.817 190.41 258.817 188.877 259.55C187.344 260.283 185.627 260.65 183.727 260.65ZM197.158 231.15V225H204.158V231.15L203.008 250.35H198.308L197.158 231.15ZM196.058 256.25C196.058 255.05 196.491 254.033 197.358 253.2C198.225 252.333 199.291 251.9 200.558 251.9C201.825 251.9 202.875 252.333 203.708 253.2C204.575 254.033 205.008 255.05 205.008 256.25C205.008 257.483 204.575 258.533 203.708 259.4C202.875 260.233 201.825 260.65 200.558 260.65C199.291 260.65 198.225 260.217 197.358 259.35C196.491 258.483 196.058 257.45 196.058 256.25ZM225.719 260.65C221.353 260.65 217.753 259.133 214.919 256.1L219.469 251.95C221.369 254.083 223.403 255.15 225.569 255.15C226.703 255.15 227.586 254.9 228.219 254.4C228.853 253.9 229.169 253.25 229.169 252.45C229.169 251.717 228.853 251.15 228.219 250.75C227.619 250.317 226.353 249.867 224.419 249.4C221.253 248.633 219.119 247.583 218.019 246.25C216.953 244.917 216.419 243.267 216.419 241.3C216.419 238.967 217.286 237.067 219.019 235.6C220.753 234.1 223.119 233.35 226.119 233.35C228.286 233.35 230.103 233.683 231.569 234.35C233.069 235.017 234.469 236.183 235.769 237.85L230.869 241.6C229.703 239.733 228.169 238.8 226.269 238.8C225.303 238.8 224.519 239 223.919 239.4C223.319 239.767 223.019 240.333 223.019 241.1C223.019 241.633 223.236 242.1 223.669 242.5C224.136 242.867 225.086 243.233 226.519 243.6C230.086 244.533 232.519 245.683 233.819 247.05C235.153 248.417 235.819 250.15 235.819 252.25C235.819 253.817 235.369 255.25 234.469 256.55C233.603 257.817 232.403 258.817 230.869 259.55C229.336 260.283 227.619 260.65 225.719 260.65ZM251.3 260.65C248.667 260.65 246.3 260.05 244.2 258.85C242.1 257.617 240.45 255.967 239.25 253.9C238.05 251.8 237.45 249.517 237.45 247.05C237.45 244.583 238.05 242.3 239.25 240.2C240.45 238.1 242.1 236.45 244.2 235.25C246.3 234.017 248.667 233.4 251.3 233.4C253.934 233.4 256.3 234.017 258.4 235.25C260.5 236.45 262.15 238.1 263.35 240.2C264.55 242.3 265.15 244.583 265.15 247.05C265.15 249.517 264.55 251.8 263.35 253.9C262.15 255.967 260.5 257.617 258.4 258.85C256.3 260.05 253.934 260.65 251.3 260.65ZM244.2 247.05C244.2 248.417 244.484 249.667 245.05 250.8C245.65 251.933 246.484 252.833 247.55 253.5C248.65 254.167 249.9 254.5 251.3 254.5C252.7 254.5 253.934 254.167 255 253.5C256.1 252.833 256.934 251.933 257.5 250.8C258.1 249.667 258.4 248.417 258.4 247.05C258.4 245.683 258.1 244.433 257.5 243.3C256.9 242.167 256.067 241.267 255 240.6C253.934 239.9 252.7 239.55 251.3 239.55C249.9 239.55 248.667 239.9 247.6 240.6C246.534 241.267 245.7 242.167 245.1 243.3C244.5 244.433 244.2 245.683 244.2 247.05ZM268.138 234H274.688V238.95C275.154 237.05 276.054 235.617 277.388 234.65C278.754 233.683 280.538 233.267 282.738 233.4V239.75H281.788C279.788 239.75 278.138 240.383 276.838 241.65C275.538 242.883 274.888 244.567 274.888 246.7V260H268.138V234ZM284.983 234H291.533V238.95C292 237.05 292.9 235.617 294.233 234.65C295.6 233.683 297.383 233.267 299.583 233.4V239.75H298.633C296.633 239.75 294.983 240.383 293.683 241.65C292.383 242.883 291.733 244.567 291.733 246.7V260H284.983V234ZM305.114 270.45C303.247 270.45 301.747 270.283 300.614 269.95L301.614 263.5C302.547 263.733 303.564 263.85 304.664 263.85C305.897 263.85 306.931 263.483 307.764 262.75C308.631 262.05 309.264 261.1 309.664 259.9L310.014 258.8L299.714 234H307.864L312.914 248.85C313.381 250.117 313.747 251.5 314.014 253C314.281 251.5 314.647 250.117 315.114 248.85L320.164 234H328.164L316.664 261.65C315.464 264.483 313.947 266.65 312.114 268.15C310.314 269.683 307.981 270.45 305.114 270.45ZM325.551 263.6L326.951 263.1C328.018 262.733 328.801 262.35 329.301 261.95C329.835 261.55 330.218 261.017 330.451 260.35C330.051 260.45 329.668 260.5 329.301 260.5C328.301 260.5 327.401 260.1 326.601 259.3C325.801 258.5 325.401 257.567 325.401 256.5C325.401 255.433 325.801 254.517 326.601 253.75C327.435 252.95 328.401 252.55 329.501 252.55C331.001 252.55 332.201 253.067 333.101 254.1C334.035 255.133 334.501 256.55 334.501 258.35C334.501 260.25 333.935 261.9 332.801 263.3C331.701 264.733 330.201 265.783 328.301 266.45L326.901 266.95L325.551 263.6ZM355.576 260C352.942 260 350.959 259.35 349.626 258.05C348.292 256.75 347.626 254.717 347.626 251.95V239.75H343.976V234H347.626V228.75L354.376 228.05V234H359.876V239.75H354.376V251.6C354.376 253.2 355.076 254 356.476 254H359.276V260H355.576ZM362.132 223.5H368.882V237.6C370.282 234.8 372.899 233.4 376.732 233.4C378.599 233.4 380.282 233.85 381.782 234.75C383.282 235.617 384.465 236.867 385.332 238.5C386.199 240.1 386.632 241.967 386.632 244.1V260H379.882V245.75C379.882 243.583 379.382 241.967 378.382 240.9C377.382 239.833 376.015 239.3 374.282 239.3C372.749 239.3 371.465 239.85 370.432 240.95C369.399 242.017 368.882 243.617 368.882 245.75V260H362.132V223.5ZM402.853 260.65C400.22 260.65 397.887 260.05 395.853 258.85C393.82 257.617 392.237 255.967 391.103 253.9C389.97 251.833 389.403 249.55 389.403 247.05C389.403 244.583 389.987 242.3 391.153 240.2C392.32 238.1 393.92 236.433 395.953 235.2C398.02 233.967 400.32 233.35 402.853 233.35C405.387 233.35 407.653 233.967 409.653 235.2C411.687 236.433 413.253 238.1 414.353 240.2C415.487 242.267 416.053 244.55 416.053 247.05C416.053 247.883 415.987 248.683 415.853 249.45H396.403C396.803 251.017 397.553 252.283 398.653 253.25C399.787 254.183 401.187 254.65 402.853 254.65C404.253 254.65 405.503 254.333 406.603 253.7C407.703 253.033 408.57 252.183 409.203 251.15L414.453 255.1C413.387 256.767 411.82 258.117 409.753 259.15C407.687 260.15 405.387 260.65 402.853 260.65ZM409.253 244.4C408.853 242.9 408.07 241.65 406.903 240.65C405.737 239.65 404.353 239.15 402.753 239.15C401.187 239.15 399.82 239.633 398.653 240.6C397.52 241.567 396.77 242.833 396.403 244.4H409.253ZM106.59 294H113.34V320H106.59V294ZM105.89 287.85C105.89 286.75 106.273 285.817 107.04 285.05C107.84 284.283 108.807 283.9 109.94 283.9C111.107 283.9 112.073 284.283 112.84 285.05C113.607 285.817 113.99 286.75 113.99 287.85C113.99 288.983 113.607 289.933 112.84 290.7C112.073 291.467 111.107 291.85 109.94 291.85C108.807 291.85 107.84 291.467 107.04 290.7C106.273 289.9 105.89 288.95 105.89 287.85ZM117.332 294H123.982V297.8C125.349 294.867 127.999 293.4 131.932 293.4C133.765 293.4 135.415 293.833 136.882 294.7C138.382 295.533 139.549 296.733 140.382 298.3C141.282 296.667 142.415 295.45 143.782 294.65C145.182 293.817 146.982 293.4 149.182 293.4C151.049 293.4 152.732 293.85 154.232 294.75C155.732 295.617 156.915 296.867 157.782 298.5C158.649 300.1 159.082 301.967 159.082 304.1V320H152.332V305.75C152.332 303.583 151.865 301.967 150.932 300.9C149.999 299.833 148.732 299.3 147.132 299.3C145.432 299.3 144.115 299.783 143.182 300.75C142.282 301.717 141.832 303.383 141.832 305.75V320H135.082V305.75C135.082 303.583 134.582 301.967 133.582 300.9C132.582 299.833 131.215 299.3 129.482 299.3C127.949 299.3 126.665 299.85 125.632 300.95C124.599 302.017 124.082 303.617 124.082 305.75V320H117.332V294ZM174.69 320.65C172.357 320.65 170.207 320.05 168.24 318.85C166.273 317.617 164.707 315.967 163.54 313.9C162.407 311.833 161.84 309.567 161.84 307.1C161.84 304.633 162.407 302.367 163.54 300.3C164.707 298.2 166.273 296.533 168.24 295.3C170.207 294.067 172.357 293.45 174.69 293.45C176.823 293.45 178.54 293.85 179.84 294.65C181.173 295.45 182.207 296.6 182.94 298.1V294H189.64V320H183.09V315.75C182.323 317.317 181.273 318.533 179.94 319.4C178.64 320.233 176.89 320.65 174.69 320.65ZM168.59 307.05C168.59 308.383 168.89 309.633 169.49 310.8C170.123 311.933 170.973 312.85 172.04 313.55C173.14 314.217 174.39 314.55 175.79 314.55C177.223 314.55 178.49 314.217 179.59 313.55C180.723 312.883 181.59 311.983 182.19 310.85C182.79 309.717 183.09 308.467 183.09 307.1C183.09 305.733 182.79 304.483 182.19 303.35C181.59 302.183 180.723 301.267 179.59 300.6C178.49 299.9 177.223 299.55 175.79 299.55C174.39 299.55 173.14 299.9 172.04 300.6C170.94 301.267 170.09 302.167 169.49 303.3C168.89 304.433 168.59 305.683 168.59 307.05ZM206.3 330.65C203.567 330.65 201.184 330.267 199.15 329.5C197.117 328.767 195.35 327.517 193.85 325.75L198.05 320.8C199.217 322.133 200.45 323.067 201.75 323.6C203.084 324.133 204.617 324.4 206.35 324.4C207.55 324.4 208.667 324.083 209.7 323.45C210.734 322.85 211.55 322 212.15 320.9C212.784 319.833 213.1 318.633 213.1 317.3V316.15C212.334 317.45 211.334 318.45 210.1 319.15C208.867 319.817 207.25 320.15 205.25 320.15C202.917 320.15 200.784 319.567 198.85 318.4C196.917 317.2 195.4 315.583 194.3 313.55C193.2 311.483 192.65 309.217 192.65 306.75C192.65 304.283 193.2 302.033 194.3 300C195.4 297.933 196.917 296.317 198.85 295.15C200.784 293.95 202.917 293.35 205.25 293.35C207.317 293.35 208.967 293.717 210.2 294.45C211.467 295.15 212.467 296.183 213.2 297.55V294H219.85V317.7C219.85 320.333 219.267 322.617 218.1 324.55C216.967 326.517 215.367 328.017 213.3 329.05C211.267 330.117 208.934 330.65 206.3 330.65ZM199.4 306.75C199.4 308.817 200.017 310.55 201.25 311.95C202.517 313.317 204.217 314 206.35 314C208.517 314 210.234 313.317 211.5 311.95C212.767 310.583 213.4 308.85 213.4 306.75C213.4 304.65 212.767 302.917 211.5 301.55C210.234 300.183 208.517 299.5 206.35 299.5C204.217 299.5 202.517 300.183 201.25 301.55C200.017 302.917 199.4 304.65 199.4 306.75ZM236.276 320.65C233.643 320.65 231.31 320.05 229.276 318.85C227.243 317.617 225.66 315.967 224.526 313.9C223.393 311.833 222.826 309.55 222.826 307.05C222.826 304.583 223.41 302.3 224.576 300.2C225.743 298.1 227.343 296.433 229.376 295.2C231.443 293.967 233.743 293.35 236.276 293.35C238.81 293.35 241.076 293.967 243.076 295.2C245.11 296.433 246.676 298.1 247.776 300.2C248.91 302.267 249.476 304.55 249.476 307.05C249.476 307.883 249.41 308.683 249.276 309.45H229.826C230.226 311.017 230.976 312.283 232.076 313.25C233.21 314.183 234.61 314.65 236.276 314.65C237.676 314.65 238.926 314.333 240.026 313.7C241.126 313.033 241.993 312.183 242.626 311.15L247.876 315.1C246.81 316.767 245.243 318.117 243.176 319.15C241.11 320.15 238.81 320.65 236.276 320.65ZM242.676 304.4C242.276 302.9 241.493 301.65 240.326 300.65C239.16 299.65 237.776 299.15 236.176 299.15C234.61 299.15 233.243 299.633 232.076 300.6C230.943 301.567 230.193 302.833 229.826 304.4H242.676ZM262.103 292.25C262.103 289.617 262.886 287.5 264.453 285.9C266.02 284.3 268.12 283.5 270.753 283.5H273.553V289.25H271.803C269.836 289.25 268.853 290.283 268.853 292.35V294H274.153V299.75H268.853V320H262.103V299.75H258.453V294H262.103V292.25ZM286.75 320.65C284.417 320.65 282.267 320.05 280.3 318.85C278.334 317.617 276.767 315.967 275.6 313.9C274.467 311.833 273.9 309.567 273.9 307.1C273.9 304.633 274.467 302.367 275.6 300.3C276.767 298.2 278.334 296.533 280.3 295.3C282.267 294.067 284.417 293.45 286.75 293.45C288.884 293.45 290.6 293.85 291.9 294.65C293.234 295.45 294.267 296.6 295 298.1V294H301.7V320H295.15V315.75C294.384 317.317 293.334 318.533 292 319.4C290.7 320.233 288.95 320.65 286.75 320.65ZM280.65 307.05C280.65 308.383 280.95 309.633 281.55 310.8C282.184 311.933 283.034 312.85 284.1 313.55C285.2 314.217 286.45 314.55 287.85 314.55C289.284 314.55 290.55 314.217 291.65 313.55C292.784 312.883 293.65 311.983 294.25 310.85C294.85 309.717 295.15 308.467 295.15 307.1C295.15 305.733 294.85 304.483 294.25 303.35C293.65 302.183 292.784 301.267 291.65 300.6C290.55 299.9 289.284 299.55 287.85 299.55C286.45 299.55 285.2 299.9 284.1 300.6C283 301.267 282.15 302.167 281.55 303.3C280.95 304.433 280.65 305.683 280.65 307.05ZM305.711 294H312.461V320H305.711V294ZM305.011 287.85C305.011 286.75 305.394 285.817 306.161 285.05C306.961 284.283 307.928 283.9 309.061 283.9C310.228 283.9 311.194 284.283 311.961 285.05C312.728 285.817 313.111 286.75 313.111 287.85C313.111 288.983 312.728 289.933 311.961 290.7C311.194 291.467 310.228 291.85 309.061 291.85C307.928 291.85 306.961 291.467 306.161 290.7C305.394 289.9 305.011 288.95 305.011 287.85ZM316.453 283.5H323.203V320H316.453V283.5ZM339.645 320.65C337.012 320.65 334.679 320.05 332.645 318.85C330.612 317.617 329.029 315.967 327.895 313.9C326.762 311.833 326.195 309.55 326.195 307.05C326.195 304.583 326.779 302.3 327.945 300.2C329.112 298.1 330.712 296.433 332.745 295.2C334.812 293.967 337.112 293.35 339.645 293.35C342.179 293.35 344.445 293.967 346.445 295.2C348.479 296.433 350.045 298.1 351.145 300.2C352.279 302.267 352.845 304.55 352.845 307.05C352.845 307.883 352.779 308.683 352.645 309.45H333.195C333.595 311.017 334.345 312.283 335.445 313.25C336.579 314.183 337.979 314.65 339.645 314.65C341.045 314.65 342.295 314.333 343.395 313.7C344.495 313.033 345.362 312.183 345.995 311.15L351.245 315.1C350.179 316.767 348.612 318.117 346.545 319.15C344.479 320.15 342.179 320.65 339.645 320.65ZM346.045 304.4C345.645 302.9 344.862 301.65 343.695 300.65C342.529 299.65 341.145 299.15 339.545 299.15C337.979 299.15 336.612 299.633 335.445 300.6C334.312 301.567 333.562 302.833 333.195 304.4H346.045ZM367.317 320.65C364.983 320.65 362.833 320.05 360.867 318.85C358.9 317.617 357.333 315.967 356.167 313.9C355.033 311.833 354.467 309.567 354.467 307.1C354.467 304.633 355.033 302.367 356.167 300.3C357.333 298.2 358.9 296.533 360.867 295.3C362.833 294.067 364.983 293.45 367.317 293.45C369.45 293.45 371.167 293.85 372.467 294.65C373.767 295.417 374.783 296.533 375.517 298V283.5H382.267V320H375.717V315.75C374.95 317.317 373.9 318.533 372.567 319.4C371.267 320.233 369.517 320.65 367.317 320.65ZM361.217 307.05C361.217 308.383 361.517 309.633 362.117 310.8C362.75 311.933 363.6 312.85 364.667 313.55C365.767 314.217 367.017 314.55 368.417 314.55C369.85 314.55 371.117 314.217 372.217 313.55C373.35 312.883 374.217 311.983 374.817 310.85C375.417 309.717 375.717 308.467 375.717 307.1C375.717 305.733 375.417 304.483 374.817 303.35C374.217 302.183 373.35 301.267 372.217 300.6C371.117 299.9 369.85 299.55 368.417 299.55C367.017 299.55 365.767 299.9 364.667 300.6C363.567 301.267 362.717 302.167 362.117 303.3C361.517 304.433 361.217 305.683 361.217 307.05ZM389.877 320.65C388.611 320.65 387.544 320.217 386.677 319.35C385.811 318.483 385.377 317.45 385.377 316.25C385.377 315.05 385.811 314.033 386.677 313.2C387.544 312.333 388.611 311.9 389.877 311.9C391.144 311.9 392.194 312.333 393.027 313.2C393.894 314.033 394.327 315.05 394.327 316.25C394.327 317.483 393.894 318.533 393.027 319.4C392.194 320.233 391.144 320.65 389.877 320.65Z" fill="black"/>
</svg>